<svg xmlns="http://www.w3.org/2000/svg"><symbol id="slategroup" viewBox="0 0 571.199 70.048"><path d="M22.88 15.93a8.853 8.853 0 0 1 5.456-1.585 14.944 14.944 0 0 1 5.456 1.1 21.337 21.337 0 0 1 5.632 3.388l6.865-13.464a45.495 45.495 0 0 0-10.297-4.004A41.8 41.8 0 0 0 25.696 0a27.269 27.269 0 0 0-9.548 1.584 20.41 20.41 0 0 0-7.216 4.444 19.847 19.847 0 0 0-4.576 6.865 23.513 23.513 0 0 0-1.627 8.932 18.804 18.804 0 0 0 1.54 8.14 15.72 15.72 0 0 0 4.046 5.324 20.586 20.586 0 0 0 5.72 3.388q3.211 1.277 6.556 2.331 2.816.97 4.796 1.761a14.136 14.136 0 0 1 3.213 1.715 5.629 5.629 0 0 1 1.76 2.024 5.997 5.997 0 0 1-1.54 6.996q-2.069 1.937-6.292 1.937a18.4 18.4 0 0 1-7.48-1.672 29.972 29.972 0 0 1-7.656-5.104L0 62.569a39.956 39.956 0 0 0 23.32 7.48 33.759 33.759 0 0 0 10.869-1.627 23.148 23.148 0 0 0 8.096-4.577 19.268 19.268 0 0 0 5.015-7.084 23.885 23.885 0 0 0 1.716-9.241q0-7.567-3.916-12.276-3.916-4.706-12.364-7.524-2.113-.703-4.268-1.32a23.708 23.708 0 0 1-3.872-1.45 9.2 9.2 0 0 1-2.773-1.981 4.11 4.11 0 0 1-1.055-2.904 4.933 4.933 0 0 1 2.112-4.136zm204.076.526V1.849h-37.752v66.352h37.752V53.592h-20.504V42.153h20.504V27.544h-20.504V16.456h20.504zM56.64 1.849v66.352h40.562V53.592H73.888V1.849H56.64zm124.384 0h-45.583v14.608h14.167v51.744h17.248V16.457h14.168V1.849zm-75.504 0v13.088l8.898 25.543h-8.898v13.112h13.466l5.089 14.609h18.392L117.211 1.849H105.52z"/><path opacity=".6" d="M270.331 31.064h34.232a95.19 95.19 0 0 1-.44 9.592 34.029 34.029 0 0 1-1.76 8.008 31.953 31.953 0 0 1-5.015 9.196 29.34 29.34 0 0 1-7.436 6.688 34.916 34.916 0 0 1-9.373 4.092 40.212 40.212 0 0 1-10.735 1.408 37.707 37.707 0 0 1-14.124-2.552 31.852 31.852 0 0 1-10.956-7.172 32.468 32.468 0 0 1-7.128-11.088 38.618 38.618 0 0 1-2.553-14.3 39.003 39.003 0 0 1 2.508-14.212A31.199 31.199 0 0 1 244.68 9.68a32.404 32.404 0 0 1 11.132-7.128A39.507 39.507 0 0 1 270.331 0a35.996 35.996 0 0 1 18.216 4.488q7.832 4.488 12.408 13.904l-16.368 6.776q-2.29-5.455-5.94-7.832a14.909 14.909 0 0 0-8.316-2.376 16.698 16.698 0 0 0-7.04 1.452 15.268 15.268 0 0 0-5.412 4.136 19.86 19.86 0 0 0-3.52 6.468 26.33 26.33 0 0 0-1.276 8.448 26.704 26.704 0 0 0 1.1 7.832 17.67 17.67 0 0 0 3.3 6.248 14.868 14.868 0 0 0 5.456 4.092 18.43 18.43 0 0 0 7.568 1.452 20.908 20.908 0 0 0 4.928-.572 12.98 12.98 0 0 0 4.269-1.848 10.518 10.518 0 0 0 3.124-3.3 13.226 13.226 0 0 0 1.671-4.928h-14.168zM368.89 68.2h-21.472l-16.455-25.52V68.2h-17.249V1.848h26.84a26.356 26.356 0 0 1 9.68 1.628 18.228 18.228 0 0 1 10.868 10.956 22.697 22.697 0 0 1 1.365 7.92q0 7.57-3.653 12.276t-10.78 6.38zm-37.927-36.696h3.255q5.103 0 7.833-2.112a7.223 7.223 0 0 0 2.728-6.072 7.224 7.224 0 0 0-2.728-6.072q-2.73-2.112-7.833-2.112h-3.255zm38.191 3.52a34.19 34.19 0 0 1 21.868-32.34 42.18 42.18 0 0 1 29.612 0 34.995 34.995 0 0 1 11.66 7.436 34.035 34.035 0 0 1 7.611 11.132 34.668 34.668 0 0 1 2.729 13.773 34.66 34.66 0 0 1-2.729 13.771 34.018 34.018 0 0 1-7.611 11.132 34.974 34.974 0 0 1-11.66 7.437 42.187 42.187 0 0 1-29.612 0 34.32 34.32 0 0 1-21.868-32.34zm18.04 0a17.67 17.67 0 0 0 1.496 7.304 18.268 18.268 0 0 0 9.988 9.636 19.193 19.193 0 0 0 20.328-3.828 18.127 18.127 0 0 0 4.092-5.808 17.685 17.685 0 0 0 1.496-7.304 17.689 17.689 0 0 0-1.496-7.304 18.162 18.162 0 0 0-4.092-5.808 19.354 19.354 0 0 0-20.328-3.828 18.267 18.267 0 0 0-9.988 9.636 17.674 17.674 0 0 0-1.497 7.304zm81.575-33.176v36.08q0 2.904.22 5.94a16.248 16.248 0 0 0 1.32 5.5 9.14 9.14 0 0 0 3.475 4.004 12.26 12.26 0 0 0 6.689 1.54 12.027 12.027 0 0 0 6.643-1.54 9.549 9.549 0 0 0 3.477-4.004 15.67 15.67 0 0 0 1.364-5.5q.218-3.037.22-5.94V1.848h17.16v38.456q0 15.489-7.084 22.616t-21.78 7.128q-14.697 0-21.824-7.128t-7.128-22.616V1.848zM537.936 68.2h-17.248V1.848h27.456q11.175 0 17.116 5.808t5.94 16.368q0 10.56-5.94 16.368T548.144 46.2h-10.208zm0-35.904h5.72q9.504 0 9.504-8.272t-9.504-8.272h-5.72z"/></symbol></svg>