<svg xmlns="http://www.w3.org/2000/svg" width="210.895" height="283.46" viewBox="0 0 210.895 283.46"><path fill="#010202" d="M87.518 71.862H75.691c-9.668 0-17.513-7.959-17.513-17.625V17.51c0-9.665 7.845-17.512 17.513-17.512h11.826c9.665 0 17.51 7.847 17.51 17.512v36.728c0 9.665-7.844 17.624-17.509 17.624m5.457-54.581c0-3.182-2.615-5.798-5.802-5.798h-11.14c-3.187 0-5.802 2.616-5.802 5.798v37.297c0 3.185 2.615 5.799 5.802 5.799h11.14c3.187 0 5.802-2.614 5.802-5.799V17.281zM146.077 70.953l-14.443-28.769h-8.072v28.769h-12.055V.907h29.336c9.666 0 17.629 7.961 17.629 17.627v6.137c0 8.529-6.256 15.695-14.445 17.286l15.352 28.996h-13.302zm.34-52.647c0-3.183-2.73-5.912-5.914-5.912h-16.941V30.7h16.941c3.184 0 5.914-2.614 5.914-5.801v-6.593z"/><path fill="#D40A52" d="M193.604 70.953h-29.68V.907h29.338c9.211 0 17.508 7.847 17.508 17.284v35.478c.001 9.436-7.843 17.284-17.166 17.284m5.116-52.762c0-3.184-2.957-5.801-6.027-5.801h-16.715v47.078h17.057c3.072 0 5.686-2.617 5.686-5.8V18.191z"/><path fill="#010202" d="M36.833 143.89l-13.234-26.363H16.2v26.363H5.155V79.7h26.887c8.855 0 16.15 7.295 16.15 16.151v5.628c0 7.814-5.731 14.38-13.234 15.84l14.067 26.57H36.833zm.313-48.246c0-2.918-2.502-5.418-5.418-5.418H16.199v16.777h15.529c2.916 0 5.418-2.397 5.418-5.314v-6.045zM86.538 143.891V116.9H65.697v26.991H54.653v-64.19h11.044v26.674h20.841V79.701h11.046v64.19z"/><path fill="#B1C80B" d="M104.252 143.891v-64.19h37.62v10.524H115.3v16.15h26.572V116.9H115.3v16.465h26.572v10.526z"/><path fill="#F39507" d="M148.853 79.594h11.045v64.297h-11.045z"/><path fill="#010202" d="M199.39 143.891l-20.53-41.057v41.057h-11.043v-64.19h11.358l20.529 42.618V79.701h11.047v64.19zM61.624 215.73H47.962l-10.577-41.492-10.577 41.492H13.146L-.001 152.464H11.3l9.242 47.039 11.295-47.039h10.992l11.4 47.039 9.242-47.039h11.193zM79.082 215.73v-63.266h37.077v10.375H89.971v15.918h26.188v10.373H89.971v16.226h26.188v10.374zM150.052 216.552H139.37c-8.729 0-15.814-7.188-15.814-15.919h10.887c0 2.875 2.361 5.548 5.238 5.548h10.166c2.877 0 5.238-2.673 5.238-5.548v-3.082c0-1.951-1.025-3.696-2.773-4.62l-21.361-11.093c-5.033-2.875-7.395-7.805-7.395-13.555v-1.028c0-8.729 7.086-15.816 15.814-15.816h9.141c8.729 0 15.918 7.088 15.918 15.816h-10.986c0-2.877-2.363-5.441-5.238-5.441h-8.523c-2.877 0-5.238 2.564-5.238 5.441v1.028c0 1.847 1.025 3.798 2.666 4.621l21.363 11.092c5.242 2.67 7.396 7.805 7.396 13.555v3.082c-.001 8.731-7.089 15.919-15.817 15.919M195.034 162.839v52.891h-10.885v-52.891h-15.714v-10.372h42.312v10.372zM5.047 283.462v-59.089h34.627v9.688h-24.46v14.867h24.46v9.69h-24.46v24.844zM76.318 283.459l-3.165-10.071H51.475l-3.168 10.071H37.563l19.475-59.087h10.456l19.57 59.087H76.318zm-14.004-46.138l-7.866 26.378h15.636l-7.77-26.378zM90.994 283.462v-59.089h10.168v49.401h24.46v9.688zM130.897 283.462v-59.089h34.631v9.688h-24.463v14.867h24.463v9.69h-24.463v15.156h24.463v9.688z"/><path fill="#07ABD4" d="M200.442 283.462l-18.896-37.796v37.796h-10.17v-59.089h10.459l18.896 39.233v-39.233h10.165v59.089z"/><path fill="#010202" d="M39.646 70.953l-22.399-44.8v44.8H5.191V.906h12.395l22.401 46.508V.906h12.056v70.047z"/></svg>