<svg xmlns="http://www.w3.org/2000/svg" xmlns:xlink="http://www.w3.org/1999/xlink" viewBox="5442 -5559 243 70">
  <defs>
    <style>
      .cls-1 {
        clip-path: url(#clip-petlove_logo);
      }

      .cls-2 {
        fill: #fff;
      }

      .cls-3 {
        fill: #f24783;
      }

      .cls-4 {
        fill: none;
      }
    </style>
    <clipPath id="clip-petlove_logo">
      <rect x="5442" y="-5559" width="243" height="70"/>
    </clipPath>
  </defs>
  <g id="petlove_logo" class="cls-1">
    <g id="Group_4446" data-name="Group 4446" transform="translate(23210 -1790)">
      <g id="Group_4105" data-name="Group 4105" transform="translate(-17795 -3782)">
        <path id="Path_4316" data-name="Path 4316" class="cls-2" d="M98.815,91.688A11.07,11.07,0,0,1,108.264,87a13.7,13.7,0,0,1,10.556,4.761c2.916,3.174,4.319,7.235,4.319,12.144a17.131,17.131,0,0,1-4.392,12.107,13.535,13.535,0,0,1-10.409,4.724,10.913,10.913,0,0,1-9.56-5.2v21.039H88V87.332H98.815Zm11.848,18.234a9.4,9.4,0,0,0,0-12.033,7,7,0,0,0-10.04-.037,9.4,9.4,0,0,0,0,12.033,7,7,0,0,0,10.04.037" transform="translate(-55.703 -55.072)"/>
        <path id="Path_4317" data-name="Path 4317" class="cls-2" d="M311.982,97.544h3.249v8.416h-4.8c-3.691,0-6.754-.517-8.785-2.141S298.4,99.685,298.4,95.7V81.931H296V73.516h2.4V65.1h10.815v8.416h6.017v8.416h-6.017V95.7c.037,1.513.738,1.846,2.768,1.846" transform="translate(-186.929 -41.256)"/>
        <rect id="Rectangle_3443" data-name="Rectangle 3443" class="cls-2" width="11.073" height="43.259" transform="translate(136.237 21.445)"/>
        <path id="Path_4318" data-name="Path 4318" class="cls-2" d="M531.2,87.9h11.147l7.123,23,7.124-23H567.7L556,120.344H542.9Z" transform="translate(-335.314 -55.64)"/>
        <path id="Path_4319" data-name="Path 4319" class="cls-3" d="M434.2,88.139a14.234,14.234,0,0,1,4.946-2.768c9.338-2.731,16.573,4.614,15.1,13.657a19.59,19.59,0,0,1-4.946,9.523,47.3,47.3,0,0,1-13.915,10.815,1.85,1.85,0,0,1-1.993.221c-6.571-3.433-12.365-7.788-16.573-14.026a15,15,0,0,1-2.916-8.489c0-4.5,1.513-8.342,5.573-10.7,4.134-2.4,8.342-2.067,12.476.185.738.48,1.44,1.034,2.252,1.587" transform="translate(-261.311 -53.628)"/>
        <path id="Path_4320" data-name="Path 4320" class="cls-2" d="M227.709,107.744a28.279,28.279,0,0,0,.221-3.47c0-5.315-1.587-9.781-4.8-12.771a17.04,17.04,0,0,0-12.07-4.5,16.05,16.05,0,0,0-11.885,4.577C196.113,94.6,194.6,98.7,194.6,103.831a18.221,18.221,0,0,0,2.215,9.191l.554.886a2.228,2.228,0,0,0,.258.369c.184.258.369.517.553.738a15.3,15.3,0,0,0,1.034,1.144,15.933,15.933,0,0,0,11.848,4.651h.406a16.05,16.05,0,0,0,11.885-4.577,14.931,14.931,0,0,0,3.728-6.127H216.267a6.618,6.618,0,0,1-5.241,2.288c-3.248,0-5.906-1.956-6.053-4.429v-.221ZM207.076,96.855a5.961,5.961,0,0,1,4.1-1.329,6.409,6.409,0,0,1,4.208,1.366,5.936,5.936,0,0,1,2.03,3.617h-12.4A7.22,7.22,0,0,1,207.076,96.855Z" transform="translate(-122.956 -55.072)"/>
        <path id="Path_4321" data-name="Path 4321" class="cls-2" d="M664.708,107.744a28.251,28.251,0,0,0,.221-3.47c0-5.315-1.587-9.781-4.8-12.771a17.041,17.041,0,0,0-12.07-4.5,16.05,16.05,0,0,0-11.885,4.577C633.113,94.6,631.6,98.7,631.6,103.831a18.215,18.215,0,0,0,2.215,9.191q.276.443.554.886a2.222,2.222,0,0,0,.257.369c.185.258.369.517.554.738a15.389,15.389,0,0,0,1.033,1.144,15.936,15.936,0,0,0,11.849,4.651h.405a16.051,16.051,0,0,0,11.885-4.577,14.933,14.933,0,0,0,3.728-6.127H653.266a6.618,6.618,0,0,1-5.241,2.288c-3.248,0-5.905-1.956-6.053-4.429v-.221Zm-20.6-10.889a5.959,5.959,0,0,1,4.1-1.329,6.413,6.413,0,0,1,4.209,1.366,5.938,5.938,0,0,1,2.03,3.617h-12.4A6.958,6.958,0,0,1,644.113,96.855Z" transform="translate(-398.657 -55.072)"/>
        <rect id="Rectangle_3444" data-name="Rectangle 3444" class="cls-4" width="297.5" height="95.968" transform="translate(0 0)"/>
      </g>
    </g>
  </g>
</svg>
