<svg xmlns="http://www.w3.org/2000/svg"><symbol id="notable" viewBox="0 0 70 16"><path d="M2.208 15.975c-.026.038-.054.024-.146.015a2.41 2.41 0 0 1-1.352-.58A2.35 2.35 0 0 1 0 13.685v-9.5a2.22 2.22 0 0 1 .253-1.15.991.991 0 0 1 .78-.515 1.126 1.126 0 0 1 .551.15 3.273 3.273 0 0 1 1.24 1.53l.864 1.583 1.984 3.633.432.79a69.675 69.675 0 0 1-.077-5.993c.014-.382.053-.763.063-1.146a1.365 1.365 0 0 1 .069-.689c.268-.442 1.068-.513 1.527-.416.515.108.594.798.615 1.225 0 0 .366 7.507-.305 10.803-.04.197-.396.312-.554.326-.988.093-1.534-.836-1.99-1.544q-.704-1.095-1.395-2.2c-.337-.54-.671-1.08-.997-1.626a39.238 39.238 0 0 1-.418-.716c-.077-.135-.322-.433-.322-.588q0 .937-.008 1.874-.005.754-.017 1.507c-.01.609-.075 1.216-.103 1.827q-.049 1.022-.013 2.044.008.246.022.49a1.782 1.782 0 0 1 .034.532.324.324 0 0 1-.027.059zM18.15 3.07c-.8-2.28-2.594-2.013-2.594-2.013a4.911 4.911 0 0 0-2.672.931 3.762 3.762 0 0 0-.933.757 4.567 4.567 0 0 0-.588 1.09 10.325 10.325 0 0 0-.607 2.023 12.315 12.315 0 0 0-.204 3.314 3.557 3.557 0 0 0 .5 1.473 5.142 5.142 0 0 0 1.693 1.822 2.922 2.922 0 0 0 .873.414l.044.01a4.86 4.86 0 0 0 1.573-.037 3.812 3.812 0 0 0 .588-.132 2.107 2.107 0 0 0 .235-.082 3.63 3.63 0 0 0 1.722-1.932 9.997 9.997 0 0 0 .852-3.123 10.85 10.85 0 0 0-.481-4.515zm-1.915 3.71s-.735 3.686-1.629 4.244a.703.703 0 0 1-.847-.03 1.835 1.835 0 0 1-.532-.712 4.907 4.907 0 0 1-.266-2.507 8.899 8.899 0 0 1 .702-2.75 4.242 4.242 0 0 1 .833-1.29 2.394 2.394 0 0 1 .583-.439c.195-.102.654-.315.86-.21a.287.287 0 0 1 .13.225c.085.61.13 1.226.175 1.84a6.114 6.114 0 0 1-.009 1.629zm12.154-4.583c0-1.261-1.6-1.334-1.6-1.334a7.143 7.143 0 0 0-1.447.18 9.33 9.33 0 0 1-2.567-.018 5.815 5.815 0 0 0-1.662-.138 1.054 1.054 0 0 0-.814.6c-.063.22.17.476.31.62a4.057 4.057 0 0 0 .614.54 3.752 3.752 0 0 0 1.704.497 67.398 67.398 0 0 0-.795 7.322c.102.321.267.389.267.389 1.358.873 2.11.533 2.11.533.655-.218.46-1.091.46-1.091a14.16 14.16 0 0 1-.145-1.711c-.037-.729.36-3.925.553-5.419h.005a11.488 11.488 0 0 1 1.892 0c1.26 0 1.115-.97 1.115-.97zm8.277 5.453a57.264 57.264 0 0 0-.662-3.048c-.124-.506-.288-1.012-.387-1.522a9.152 9.152 0 0 0-.284-1.148A2.884 2.884 0 0 0 33.92.1a1.59 1.59 0 0 0-1.752.544 3.152 3.152 0 0 0-.274.349 16.626 16.626 0 0 0-1.23 2.31 8.285 8.285 0 0 0-.284 1.032q-.433 1.495-.821 3.003c-.186.719-.366 1.44-.525 2.165-.068.31-.132.62-.186.931a1.738 1.738 0 0 0-.065.67.404.404 0 0 0 .092.175c.23.255.651.148.97.241a.27.27 0 0 1 .084.037.362.362 0 0 1 .084.112.738.738 0 0 0 .371.304.5.5 0 0 0 .402.008c.161-.112.246-.563.315-.752q.175-.481.345-.964.26-.74.506-1.487a8.619 8.619 0 0 0 2.388.012 15.228 15.228 0 0 0 .118 1.633.832.832 0 0 0 .495.803 6.304 6.304 0 0 0 1.233.449.543.543 0 0 0 .158.022.506.506 0 0 0 .208-.07 1.276 1.276 0 0 0 .414-.33.74.74 0 0 0 .154-.497 21.626 21.626 0 0 0-.454-3.152zm-4.19-.686a27.648 27.648 0 0 1 .725-2.904c.284.9.581 2.016.799 2.872a11.647 11.647 0 0 1-1.523.032zm13.93-2.446a3.575 3.575 0 0 0-.164-2.128 2.593 2.593 0 0 0-1.163-1.389 3.154 3.154 0 0 0-1.283-.355 4.622 4.622 0 0 0-2.4.76q-.377.2-.738.428c-.042.027-.259.127-.271.18a29.612 29.612 0 0 0-.515 3.284 113.487 113.487 0 0 0-.391 4.016q-.062.757-.117 1.515l-.036.513a1.52 1.52 0 0 0-.022.371.113.113 0 0 0 .015.036.279.279 0 0 0 .079.071 9.396 9.396 0 0 0 1.464.91 3.957 3.957 0 0 0 2.064.217 2.88 2.88 0 0 0 2.077-1.233 4.31 4.31 0 0 0 .103-4.84c-.005-.008.184-.219.202-.241a5.45 5.45 0 0 0 1.096-2.115zm-3.342 5.607a1.524 1.524 0 0 1-.517.75.659.659 0 0 1-.467.105c-.018-.003-.197-.038-.197-.066V7.457c0-.067.706.088.787.128a1.489 1.489 0 0 1 .573.748 1.546 1.546 0 0 1 .12.47 3.18 3.18 0 0 1-.3 1.322zm.813-5.959a1.764 1.764 0 0 1-1.684 1.228l.31-2.329a3.385 3.385 0 0 1 1.419-.122 1.629 1.629 0 0 1 .037.394 2.824 2.824 0 0 1-.082.83zm10.526 6.464a11.744 11.744 0 0 0-1.203.334l-1.826.507c.073-.695.134-1.393.142-1.513.061-1.03.085-2.06.156-3.09.043-.635.105-1.27.204-1.9a14.974 14.974 0 0 0 .312-1.88 2.48 2.48 0 0 0-.214-1.136.906.906 0 0 0-.821-.532l-.13.001a1.417 1.417 0 0 0-1.271.877 4.181 4.181 0 0 0-.298 1.341c-.138 1.277-.276 2.556-.313 3.84-.021.724-.01 1.45-.094 2.17-.104.901-.356 1.778-.496 2.674a.433.433 0 0 0-.005.113 1.982 1.982 0 0 0 .048.454.13.13 0 0 0 .039.076.139.139 0 0 0 .081.02 2.234 2.234 0 0 1 1.445.582.23.23 0 0 0 .077.049.242.242 0 0 0 .097.003 25.39 25.39 0 0 0 4.07-.77l.028-.006a1.34 1.34 0 0 0 1.173-1.046 1.051 1.051 0 0 0-1.201-1.168zm10.514-7.067a.634.634 0 0 0-.647-.604 11.907 11.907 0 0 0-1.678.152c-.17.018-1.328.169-2.218.292a2.192 2.192 0 0 0-.513-.124 1.642 1.642 0 0 0-.954.284 1.03 1.03 0 0 0-.34.903 5.404 5.404 0 0 1-.01.148c-.038.49-.164.97-.216 1.458-.073.68-.133 1.361-.19 2.043q-.176 2.146-.302 4.296c-.013.232.498.553.679.632a.84.84 0 0 0 .483.044.92.92 0 0 0 .567.46 30.085 30.085 0 0 0 3.301.154c.614-.087.776-.748.719-1.27a.892.892 0 0 0-.848-.803c-.36-.037-1.541.031-2.418.09.03-.64.088-1.454.158-2.31a46.607 46.607 0 0 0 2.544-.066c.594-.104.594-.465.594-.465a3.216 3.216 0 0 0 0-1.06.853.853 0 0 0-.8-.463c-.499-.001-1.457.061-2.165.113.066-.705.132-1.37.187-1.915a62.3 62.3 0 0 0 3.242-.544c.8-.233.825-.465.825-.465a3.84 3.84 0 0 0 0-.98zm2.413 4.57l-.04-.008a1.623 1.623 0 0 1-.747-.343 1.102 1.102 0 0 1-.178-1.314 3.587 3.587 0 0 1 .803-1.185 2.153 2.153 0 0 1 .38-.285 1.3 1.3 0 0 1 .492-.202 1.96 1.96 0 0 1 .764.088 1.669 1.669 0 0 1 .655.3s.522.485.541.784a1.194 1.194 0 0 1-.189.467 3.535 3.535 0 0 1-.68.876 3.147 3.147 0 0 1-.854.662 1.69 1.69 0 0 1-.946.16zm-.791 4.731a.943.943 0 0 1-.243-.666 1.587 1.587 0 0 1 .719-1.253 1.646 1.646 0 0 1 .641-.228 1.486 1.486 0 0 1 .86.242c.251.13.663.312.653.65a1.148 1.148 0 0 1-.328.68s-.77.96-1.617.9a1.018 1.018 0 0 1-.685-.325z"/></symbol><symbol id="asterisk" viewBox="0 0 27 28"><path d="M25.648 3.21a2.85 2.85 0 0 0-1.912-.332 6.031 6.031 0 0 0-1.758.604 17.955 17.955 0 0 0-1.908 1.095c-1.434.928-2.738 2.035-4.194 2.93a52.223 52.223 0 0 1-3.284 1.874c-.101.052-.204.101-.305.153.535-3.86 1.267-6.867 1.267-6.867C14.29-.003 13.2 0 13.2 0c-1.041-.047-1.38 1.315-1.586 2.077a61.022 61.022 0 0 0-1.356 6.45c-.062.39-.118.783-.173 1.176-1.552-2.089-3.684-4.92-4.43-5.726a1.19 1.19 0 0 0-1.652-.364A1.064 1.064 0 0 0 3.705 5.1c.14.23.293.452.444.673.427.625.875 1.235 1.336 1.835.285.372.58.737.875 1.1.15.934.312 2.099.427 3.35a37.166 37.166 0 0 0-4.473 2.145c-.792.453-1.93.966-2.262 1.882a.56.56 0 0 0-.024.409.443.443 0 0 0 .484.216 1.718 1.718 0 0 0 .64-.352 9.31 9.31 0 0 1 .579-.362 13.25 13.25 0 0 1 1.232-.624 32.411 32.411 0 0 1 3.316-1.176c.216-.07.426-.154.639-.23a17.96 17.96 0 0 1-.37 5.046c-1.467 2.365-.244 2.964-.244 2.964.998.599 2.246-.424 2.246-.424a8.12 8.12 0 0 0 .716-.594c-.023 1.904.003 3.81.13 5.71a1.47 1.47 0 0 0 .428 1.14 1.004 1.004 0 0 0 .646.19 1.35 1.35 0 0 0 1.06-.63 3.387 3.387 0 0 0 .379-1.685c.019-1.12-.16-2.21-.24-3.32a38.68 38.68 0 0 1-.08-3.15c1-.657 2.257-1.55 3.105-2.16l.07.06a55.114 55.114 0 0 0 4.825 3.51q.57.37 1.149.723a5.42 5.42 0 0 0 1.17.639 1.515 1.515 0 0 0 1.056-.027.99.99 0 0 0 .602-.827 1.222 1.222 0 0 0-.199-.656 4.42 4.42 0 0 0-1.535-1.349q-.61-.395-1.217-.793-1.757-1.153-3.493-2.337c-.176-.12-.349-.243-.524-.364.374-.285.752-.564 1.12-.857a54.787 54.787 0 0 0 4.07-3.556 34.624 34.624 0 0 0 2.483-2.655 7.861 7.861 0 0 0 1.936-3.24 2.127 2.127 0 0 0-.56-2.115zM8.232 18.763c.062-.817.188-2.864.134-5.346.293-.12.587-.237.88-.36.154-.065.306-.134.46-.2-.06.61-.117 1.219-.165 1.829a91.382 91.382 0 0 0-.21 3.82l-.205.111c-.334.056-.625.103-.894.146zm3.415-1.779c.035-.828.08-1.656.145-2.482.468.437.94.87 1.423 1.29-.52.4-1.041.8-1.568 1.192zM23.634 5.797a2.325 2.325 0 0 1-.25.59 5.909 5.909 0 0 1-.747 1.001 44.377 44.377 0 0 1-5.053 4.9c-.87.742-1.76 1.462-2.655 2.173A69.47 69.47 0 0 1 13.5 13.42a36.44 36.44 0 0 1-.934-.727c-.18-.144-.418-.298-.598-.473q.034-.346.071-.689c.596-.249 1.184-.52 1.764-.802a26.51 26.51 0 0 0 3.712-2.121c.681-.48 1.315-1.023 1.988-1.515a37.254 37.254 0 0 1 1.935-1.33q.465-.296.94-.576c.651-.381 1.016-.241 1.198.02a.78.78 0 0 1 .058.59z"/></symbol><symbol id="menu" viewBox="0 0 16 15"><path d="M15.6 6a.4.4 0 0 1 .4.4v2.2a.4.4 0 0 1-.4.4H.4a.4.4 0 0 1-.4-.4V6.4A.4.4 0 0 1 .4 6h15.2zm0-6a.4.4 0 0 1 .4.4v2.2a.4.4 0 0 1-.4.4H.4a.4.4 0 0 1-.4-.4V.4A.4.4 0 0 1 .4 0h15.2zm0 12a.4.4 0 0 1 .4.4v2.2a.4.4 0 0 1-.4.4H.4a.4.4 0 0 1-.4-.4v-2.2a.4.4 0 0 1 .4-.4h15.2z"/></symbol><symbol id="close" viewBox="0 0 24 24"><path d="M.546 2.667L2.667.546 23.88 21.759l-2.12 2.121z"/><path d="M21.76.546l2.12 2.121L2.667 23.88.546 21.76z"/></symbol><symbol id="_news-and-politics" viewBox="0 0 149.377 6.305"><path d="M.05 3.136a2.184 2.184 0 0 1 .21-1.533C.873.628 2.588.81 3.573.725c3.468-.298 6.95-.46 10.43-.507C20.83.125 27.657.65 34.473.982q10.721.522 21.454.854c8.284.264 16.59.507 24.876.24 6.247-.203 12.495-.412 18.737-.735 3.87-.2 7.704-.563 11.562-.91a189.127 189.127 0 0 1 20.15-.32c3.434.059 6.868.139 10.299.283 1.68.07 3.356.17 5.033.28a3.56 3.56 0 0 1 1.961.386 2.846 2.846 0 0 1 .798 1.85c.226 1.59-.705 2.472-2.27 2.49-1.572.017-3.19-.257-4.76-.375a318.389 318.389 0 0 0-10.255-.62 216.28 216.28 0 0 0-25.305.612c-6.735.503-13.47 1.058-20.225 1.223-5.889.144-11.796.012-17.685-.052-6.843-.075-13.687-.195-20.526-.455-6.827-.259-13.615-.976-20.437-1.3-3.42-.161-6.842-.214-10.266-.243a98.26 98.26 0 0 0-10.286.314c-1.48.143-2.976.559-4.456.6A2.494 2.494 0 0 1 .049 3.136z"/></symbol><symbol id="_culture" viewBox="0 0 70.932 7.407"><path d="M.048 5.364a2.073 2.073 0 0 1 1.8-2.625q1.275-.197 2.553-.378Q9.523 1.63 14.67 1.074C19.017.606 23.379.23 27.75.067c5.108-.191 10.223.067 15.326.273 5.754.232 11.512.508 17.251.994a70.435 70.435 0 0 1 8.536 1.06 2.328 2.328 0 0 1 2.043 2.184 3.38 3.38 0 0 1-.558 2.537 1.406 1.406 0 0 1-1.495.13 8.465 8.465 0 0 0-1.938-.46q-2.146-.26-4.294-.51-4.319-.5-8.644-.94c-5.806-.583-11.635-1.023-17.473-1.058a169.113 169.113 0 0 0-17.446.917q-4.408.43-8.799 1.018-2.237.297-4.469.628-1.05.156-2.1.32a7.752 7.752 0 0 1-1.878.235 2.261 2.261 0 0 1-1.764-2.03z"/></symbol><symbol id="_technology" viewBox="0 0 120.349 7.836"><path d="M.02 5.79c.13-1.199.645-2.63 1.944-2.95a24.63 24.63 0 0 1 3.873-.34q4.377-.338 8.757-.647 9.063-.64 18.136-1.139C40.604.292 48.478.002 56.364 0q5.48-.001 10.959.008 8.967.015 17.933.055 9.205.045 18.41.143c4.195.051 8.398.078 12.59.273 1.506.07 3.462.041 3.975 1.856a3.776 3.776 0 0 1-.695 3.312c-.828.818-2.524.435-3.57.4q-4.258-.142-8.515-.278-17.636-.562-35.276-.994C66.298 4.64 60.419 4.508 54.54 4.5c-6.019-.007-12.043.41-18.051.723-5.985.311-11.968.647-17.947 1.045-5.589.372-11.171.78-16.72 1.544C.49 7.996-.12 7.073.018 5.79z"/></symbol><symbol id="_business" viewBox="0 0 90.125 6.409"><path d="M.432 5.146c-.38-.702-.706-1.783-.08-2.439a2.232 2.232 0 0 1 1.31-.514 94.873 94.873 0 0 1 4.255-.622A205.959 205.959 0 0 1 27.191.08c5.792-.131 11.597-.068 17.39-.041 5.493.025 10.99.04 16.479.257q7.24.286 14.48.605c2.678.119 5.356.24 8.033.384.932.05 1.864.101 2.795.166 1.225.085 2.493.165 3.25 1.29a2.276 2.276 0 0 1-.028 2.895c-.925.852-2.283.554-3.413.471-2.641-.194-5.284-.374-7.926-.556-5.385-.37-10.772-.74-16.163-1.023-5.207-.274-10.428-.244-15.64-.238-6.786.007-13.572.066-20.355.237-2.9.074-5.802.165-8.7.325-3.535.196-7.044.646-10.556 1.083-1.226.153-2.473.417-3.707.47A2.83 2.83 0 0 1 .432 5.146z"/></symbol><symbol id="_human-interest" viewBox="0 0 161.656 6.362"><path d="M2.34 5.21C1.125 5.08-.026 4.46 0 3.078A2.407 2.407 0 0 1 2.294.761a36.683 36.683 0 0 1 4.184.026l4.88.06q9.558.119 19.117.245 19.161.255 38.32.588c6.401.1 12.808-.049 19.208-.142 6.505-.094 13.011-.203 19.515-.38C120.242.812 132.954.218 145.685.05c3.185-.042 6.373-.077 9.558-.016 1.687.032 6.967-.393 6.366 2.627-.489 2.458-3.989 1.833-5.771 1.865-3.206.058-6.412.128-9.618.194q-14.838.305-29.672.703-7.963.214-15.926.407c-7.45.18-14.9.354-22.35.473-9.398.15-18.797-.021-28.194-.128-12.835-.146-25.673-.288-38.504-.618-3.057-.079-6.191-.016-9.233-.346z"/></symbol><symbol id="search" viewBox="0 0 18 18"><path d="M2.25 7.313a5.063 5.063 0 1 1 10.126 0 5.063 5.063 0 0 1-10.126 0m15.618 8.17l-4.336-4.339a7.254 7.254 0 0 0 1.093-3.832 7.312 7.312 0 1 0-7.313 7.313 7.251 7.251 0 0 0 3.833-1.095l4.337 4.338a.45.45 0 0 0 .636 0l1.75-1.75a.45.45 0 0 0 0-.636"/></symbol></svg>