<svg xmlns="http://www.w3.org/2000/svg" xmlns:xlink="http://www.w3.org/1999/xlink"><symbol id="logo" viewBox="0 0 313 96"><path d="M313 22.553h-28.277v15.196H313v20.02h-28.277v15.679H313v20.02h-52.065V2.534H313v20.019zM249.653 2.534v20.02h-19.538v70.915h-23.788V22.553H186.79V2.534h62.864zm-104.128 0h16.124l34.83 90.934h-25.365l-7.018-20.02h-18.57v-17.97h12.27l-12.27-35.008V2.534zm-67.412 0H101.9v70.913h32.153v20.021h-55.94V2.534zM31.554 21.83c-1.942 1.446-2.912 3.337-2.912 5.668 0 1.61.485 2.936 1.455 3.98.972 1.046 2.246 1.95 3.824 2.715 1.578.763 3.356 1.426 5.34 1.99a142.44 142.44 0 0 1 5.886 1.808c7.767 2.574 13.45 6.01 17.051 10.311 3.6 4.302 5.4 9.91 5.4 16.824 0 4.664-.788 8.886-2.367 12.664-1.576 3.78-3.883 7.015-6.916 9.709-3.034 2.694-6.757 4.783-11.165 6.271C42.738 95.256 37.743 96 32.16 96 20.59 96 9.87 92.584 0 85.75l10.194-19.056c3.56 3.135 7.08 5.469 10.559 6.995 3.477 1.528 6.918 2.292 10.316 2.292 3.883 0 6.775-.884 8.676-2.654 1.901-1.767 2.853-3.778 2.853-6.03 0-1.365-.242-2.551-.729-3.558-.485-1.004-1.294-1.93-2.426-2.774-1.134-.843-2.609-1.628-4.43-2.35-1.82-.725-4.025-1.528-6.614-2.414a131.902 131.902 0 0 1-9.042-3.195c-2.955-1.164-5.582-2.714-7.89-4.643-2.304-1.93-4.166-4.361-5.58-7.298-1.417-2.933-2.124-6.65-2.124-11.155 0-4.501.747-8.582 2.244-12.24 1.497-3.66 3.599-6.794 6.311-9.409 2.71-2.61 6.027-4.643 9.952-6.09C26.194.724 30.584 0 35.438 0c4.53 0 9.263.624 14.2 1.87a62.986 62.986 0 0 1 14.2 5.488L54.37 25.81c-2.59-2.09-5.18-3.637-7.767-4.643-2.59-1.006-5.097-1.507-7.525-1.507-3.075 0-5.581.723-7.524 2.17z"/></symbol><symbol id="splus" viewBox="0 0 639 96"><use xlink:href="#logo" width="313" height="96"/><path fill="#ffad04" d="M436.728 1.794v71.482h28.346v20.181h-51.988V1.794h23.642zm63.371 0v49.217c0 2.642.102 5.341.307 8.104.204 2.76.818 5.262 1.843 7.502 1.022 2.24 2.642 4.062 4.853 5.46 2.212 1.403 5.324 2.101 9.337 2.101s7.104-.698 9.276-2.1c2.168-1.399 3.788-3.221 4.853-5.46 1.063-2.24 1.7-4.744 1.904-7.503a110.6 110.6 0 0 0 .308-8.104V1.794h23.957v52.458c0 14.085-3.298 24.368-9.89 30.85-6.594 6.482-16.731 9.723-30.408 9.723-13.679 0-23.834-3.24-30.469-9.723-6.634-6.482-9.951-16.765-9.951-30.85V1.794h24.08zM625.852 25.81c-2.555-2.09-5.107-3.637-7.66-4.643-2.554-1.005-5.027-1.508-7.42-1.508-3.034 0-5.506.724-7.421 2.171-1.915 1.447-2.873 3.337-2.873 5.667 0 1.61.48 2.937 1.437 3.981.957 1.046 2.214 1.95 3.77 2.714 1.556.765 3.31 1.428 5.266 1.99 1.954.563 3.89 1.166 5.805 1.809 7.66 2.575 13.264 6.01 16.815 10.312 3.55 4.301 5.326 9.91 5.326 16.822 0 4.665-.778 8.887-2.334 12.665-1.555 3.781-3.83 7.015-6.822 9.708-2.992 2.696-6.663 4.785-11.01 6.272-4.35 1.487-9.276 2.231-14.782 2.231-11.41 0-21.982-3.417-31.716-10.251l10.053-19.056c3.51 3.136 6.982 5.469 10.413 6.995 3.43 1.529 6.822 2.292 10.173 2.292 3.83 0 6.682-.884 8.558-2.653 1.874-1.768 2.812-3.779 2.812-6.032 0-1.365-.24-2.55-.718-3.556-.479-1.005-1.277-1.93-2.394-2.774-1.118-.844-2.573-1.628-4.368-2.352-1.795-.724-3.97-1.527-6.523-2.412a129.793 129.793 0 0 1-8.916-3.196c-2.914-1.165-5.506-2.714-7.78-4.643-2.274-1.93-4.11-4.361-5.505-7.297-1.397-2.934-2.095-6.652-2.095-11.155 0-4.503.737-8.582 2.214-12.242 1.476-3.657 3.55-6.792 6.224-9.407 2.672-2.612 5.943-4.643 9.814-6.09C598.065.724 602.393 0 607.181 0c4.468 0 9.135.624 14.003 1.87a61.555 61.555 0 0 1 14.003 5.487l-9.335 18.452zm-271.11 18.729h7.805c8.646 0 12.97-3.792 12.97-11.376s-4.324-11.377-12.97-11.377h-7.805v22.753zM354.984 94H331V2h38.178c10.358 0 18.293 2.684 23.8 8.053 5.505 5.369 8.259 12.934 8.259 22.696 0 9.76-2.754 17.325-8.26 22.694s-13.44 8.053-23.8 8.053h-14.193V94z"/></symbol><symbol id="podcasts" viewBox="0 0 996 96"><use xlink:href="#logo" width="313" height="96" fill="currentColor"/><path d="M354.742 44.517h7.805c8.646 0 12.97-3.791 12.97-11.376 0-7.583-4.324-11.377-12.97-11.377h-7.805v22.753zm.242 49.462H331v-92h38.178c10.358 0 18.293 2.685 23.8 8.053 5.505 5.37 8.259 12.934 8.259 22.696 0 9.76-2.754 17.326-8.26 22.694-5.506 5.369-13.44 8.053-23.8 8.053h-14.193V93.98zM432.869 48c0 3.618.684 6.955 2.056 10.01 1.369 3.057 3.224 5.71 5.559 7.96 2.339 2.251 5.06 4 8.163 5.246 3.099 1.248 6.383 1.87 9.849 1.87 3.465 0 6.75-.622 9.853-1.87a25.906 25.906 0 0 0 8.22-5.246c2.374-2.25 4.25-4.903 5.618-7.96 1.373-3.055 2.057-6.392 2.057-10.01 0-3.618-.684-6.953-2.057-10.01-1.368-3.055-3.244-5.708-5.619-7.96-2.379-2.25-5.12-3.998-8.219-5.246-3.103-1.245-6.388-1.87-9.853-1.87-3.466 0-6.75.625-9.85 1.87-3.103 1.248-5.823 2.996-8.162 5.246-2.335 2.252-4.19 4.905-5.559 7.96-1.372 3.057-2.056 6.392-2.056 10.01zm-24.778 0c0-6.754 1.248-13.044 3.747-18.875 2.496-5.827 5.961-10.914 10.397-15.256 4.431-4.341 9.728-7.736 15.894-10.19C444.292 1.226 451.082 0 458.496 0c7.333 0 14.103 1.227 20.306 3.678 6.207 2.455 11.548 5.85 16.02 10.191 4.471 4.342 7.957 9.429 10.452 15.256 2.5 5.831 3.748 12.121 3.748 18.875 0 6.753-1.248 13.046-3.748 18.875-2.495 5.83-5.98 10.914-10.452 15.255-4.472 4.342-9.813 7.74-16.02 10.191C472.599 94.773 465.829 96 458.496 96c-7.414 0-14.204-1.227-20.367-3.679-6.166-2.452-11.463-5.849-15.894-10.19-4.436-4.342-7.901-9.427-10.397-15.256-2.5-5.83-3.747-12.122-3.747-18.875zm135.158 24.641h5.431c4.105 0 7.768-.637 10.988-1.913 3.22-1.273 5.934-3.028 8.15-5.26 2.215-2.23 3.903-4.882 5.07-7.951 1.165-3.067 1.752-6.435 1.752-10.102 0-3.587-.603-6.934-1.813-10.043-1.206-3.108-2.915-5.778-5.13-8.01-2.215-2.23-4.93-3.985-8.15-5.26-3.22-1.275-6.842-1.914-10.867-1.914h-5.431V72.64zm-23.665-70.3h35.014c6.196 0 12.013 1.237 17.445 3.707 5.436 2.472 10.184 5.76 14.248 9.864 4.065 4.105 7.261 8.887 9.597 14.346 2.336 5.461 3.502 11.179 3.502 17.157a43.518 43.518 0 0 1-3.441 17.037c-2.292 5.46-5.472 10.263-9.537 14.406-4.065 4.145-8.813 7.454-14.248 9.923-5.432 2.472-11.29 3.707-17.566 3.707h-35.014V2.34zM676.85 32.925c-5.439-6.673-12.16-10.01-20.16-10.01-3.52 0-6.782.644-9.779 1.93-3 1.287-5.582 3.035-7.74 5.245-2.162 2.213-3.86 4.845-5.103 7.9-1.239 3.057-1.858 6.352-1.858 9.89 0 3.617.62 6.955 1.858 10.01 1.243 3.056 2.961 5.71 5.163 7.96 2.198 2.251 4.78 4.02 7.74 5.306 2.957 1.287 6.158 1.93 9.599 1.93 7.52 0 14.282-3.215 20.28-9.649v27.98l-2.398.845c-3.6 1.284-6.961 2.23-10.082 2.833-3.12.603-6.202.905-9.239.905-6.242 0-12.224-1.187-17.942-3.558-5.722-2.37-10.761-5.708-15.12-10.01-4.36-4.3-7.861-9.407-10.503-15.316-2.637-5.91-3.96-12.363-3.96-19.357 0-6.995 1.3-13.406 3.9-19.236 2.598-5.829 6.083-10.855 10.442-15.076 4.36-4.22 9.419-7.517 15.181-9.889C642.886 1.188 648.928 0 655.25 0c3.6 0 7.137.383 10.622 1.147 3.476.764 7.137 1.95 10.977 3.556v28.222zm72.636 43.901h-33.78l-5.426 15.662h-25.215L719.687 2.34h25.817l34.623 90.147h-25.215l-5.427-15.662zm-6.275-17.814l-10.617-30.009-10.613 30.009h21.23zm97.84-33.203c-2.563-2.09-5.122-3.637-7.686-4.643-2.563-1.004-5.042-1.508-7.446-1.508-3.043 0-5.522.724-7.446 2.171-1.92 1.448-2.883 3.338-2.883 5.668 0 1.61.484 2.937 1.443 3.98.96 1.047 2.224 1.95 3.783 2.714 1.56.765 3.32 1.428 5.283 1.99 1.964.564 3.903 1.167 5.827 1.81 7.686 2.573 13.309 6.01 16.872 10.31 3.563 4.303 5.347 9.91 5.347 16.824 0 4.665-.78 8.886-2.344 12.664-1.56 3.78-3.843 7.016-6.846 9.708-3 2.695-6.687 4.785-11.05 6.272C829.541 95.255 824.6 96 819.072 96c-11.45 0-22.059-3.417-31.825-10.25l10.09-19.057c3.52 3.136 7.002 5.469 10.45 6.995 3.439 1.529 6.842 2.292 10.205 2.292 3.843 0 6.707-.884 8.586-2.653 1.884-1.768 2.823-3.778 2.823-6.03 0-1.367-.24-2.552-.72-3.558-.48-1.005-1.28-1.93-2.403-2.774-1.12-.845-2.58-1.628-4.383-2.352-1.8-.724-3.983-1.526-6.542-2.412a130.27 130.27 0 0 1-8.95-3.196c-2.923-1.164-5.523-2.713-7.806-4.643-2.284-1.93-4.123-4.36-5.523-7.297-1.404-2.934-2.103-6.651-2.103-11.155 0-4.502.74-8.582 2.223-12.242 1.48-3.657 3.56-6.793 6.243-9.406 2.683-2.612 5.966-4.644 9.85-6.091C813.168.724 817.511 0 822.314 0c4.483 0 9.17.624 14.053 1.87a61.965 61.965 0 0 1 14.052 5.487l-9.37 18.452zm62.926-3.621v70.3h-23.538v-70.3h-19.332V2.34h62.202v19.847h-19.332zm78.604 3.621c-2.564-2.09-5.127-3.637-7.687-4.643-2.564-1.004-5.047-1.508-7.447-1.508-3.043 0-5.527.724-7.446 2.171-1.924 1.448-2.884 3.338-2.884 5.668 0 1.61.48 2.937 1.444 3.98.96 1.047 2.22 1.95 3.78 2.714 1.563.765 3.323 1.428 5.286 1.99a143.92 143.92 0 0 1 5.827 1.81c7.687 2.573 13.31 6.01 16.873 10.31 3.564 4.303 5.343 9.91 5.343 16.824 0 4.665-.78 8.886-2.34 12.664-1.563 3.78-3.843 7.016-6.846 9.708-3.004 2.695-6.687 4.785-11.05 6.272C971.07 95.255 966.127 96 960.6 96c-11.45 0-22.06-3.417-31.827-10.25l10.086-19.057c3.524 3.136 7.007 5.469 10.45 6.995 3.444 1.529 6.847 2.292 10.21 2.292 3.844 0 6.704-.884 8.587-2.653 1.88-1.768 2.824-3.778 2.824-6.03 0-1.367-.24-2.552-.72-3.558-.484-1.005-1.284-1.93-2.404-2.774-1.124-.845-2.583-1.628-4.383-2.352-1.804-.724-3.983-1.526-6.547-2.412a130.176 130.176 0 0 1-8.946-3.196c-2.924-1.164-5.527-2.713-7.807-4.643-2.283-1.93-4.127-4.36-5.527-7.297-1.4-2.934-2.1-6.651-2.1-11.155 0-4.502.74-8.582 2.22-12.242 1.48-3.657 3.564-6.793 6.247-9.406 2.68-2.612 5.963-4.644 9.85-6.091C954.693.724 959.04 0 963.843 0c4.483 0 9.166.624 14.053 1.87a61.941 61.941 0 0 1 14.05 5.487L982.58 25.81z"/></symbol><symbol id="kick-the-service-worker" viewBox="0 0 10 10"><circle cx="5" cy="5" r="4"><desc>I am a circle</desc></circle></symbol><symbol id="instagram" viewBox="0 0 18 18"><path d="M9 0c2.444 0 2.751.011 3.711.054.958.044 1.612.196 2.185.419a4.39 4.39 0 0 1 1.593 1.038 4.39 4.39 0 0 1 1.038 1.593c.223.573.375 1.227.419 2.185.043.96.054 1.267.054 3.711s-.011 2.751-.054 3.711c-.044.958-.196 1.612-.419 2.185a4.39 4.39 0 0 1-1.038 1.593c-.5.5-1.002.809-1.593 1.038-.573.223-1.227.375-2.185.418-.96.044-1.267.055-3.711.055s-2.751-.011-3.711-.055c-.958-.043-1.612-.195-2.185-.418a4.403 4.403 0 0 1-1.593-1.038 4.39 4.39 0 0 1-1.038-1.593c-.223-.573-.375-1.227-.419-2.185C.011 11.751 0 11.444 0 9s.011-2.751.054-3.711c.044-.958.196-1.612.419-2.185a4.39 4.39 0 0 1 1.038-1.593A4.39 4.39 0 0 1 3.104.473C3.677.25 4.331.098 5.289.054 6.249.011 6.556 0 9 0zm5.884 4.195a1.079 1.079 0 1 0-2.158 0 1.079 1.079 0 0 0 2.158 0zM9 4.378a4.622 4.622 0 1 0 0 9.243 4.622 4.622 0 0 0 0-9.243zM9 12a3 3 0 1 1 0-6 3 3 0 0 1 0 6z"/></symbol><symbol id="twitter" viewBox="0 0 17 15"><path d="M16.167 3.646v.48c0 4.874-3.708 10.499-10.5 10.499-2.083 0-4.043-.459-5.667-1.5.292.041.584.062.874.062 1.73 0 3.335-.749 4.585-1.749a3.683 3.683 0 0 1-3.438-2.563 3.802 3.802 0 0 0 1.667-.062A3.692 3.692 0 0 1 .73 5.188v-.042c.5.27 1.062.438 1.667.457A3.667 3.667 0 0 1 .751 2.541c0-.688.186-1.249.498-1.792 1.835 2.23 4.543 3.626 7.605 3.793a3.9 3.9 0 0 1-.083-.855A3.681 3.681 0 0 1 12.46 0c1.062 0 2.02.458 2.707 1.167a7.545 7.545 0 0 0 2.335-.896 3.685 3.685 0 0 1-1.627 2.042A7.34 7.34 0 0 0 18 1.729a7.677 7.677 0 0 1-1.833 1.917"/></symbol><symbol id="facebook" viewBox="0 0 10 18"><path d="M5.903 18V9.742H8.56l.446-3.06H5.903V4.273c0-.87.446-1.37 1.328-1.37h1.992V.146S8.331 0 7.044 0C4.13 0 2.656 1.618 2.656 4.036v2.645H0v3.06h2.656V18h3.247z"/></symbol><symbol id="rss" viewBox="0 0 8 8"><circle cx="2" cy="6" r="1"/><path d="M1 4a3 3 0 0 1 3 3h1a4 4 0 0 0-4-4z"/><path d="M1 2a5 5 0 0 1 5 5h1a6 6 0 0 0-6-6z"/></symbol><symbol id="email" viewBox="0 0 16 14"><path d="M7.987 7.667c-.18 0-.374-.051-.582-.152a4.248 4.248 0 0 1-.611-.365 10.459 10.459 0 0 1-.587-.448 9.824 9.824 0 0 0-.504-.389c-.7-.534-1.392-1.06-2.079-1.581-.685-.522-1.385-1.049-2.096-1.588a5.312 5.312 0 0 1-.959-1.008 4.386 4.386 0 0 1-.391-.651A1.378 1.378 0 0 1 .017.886c0-.238.104-.445.312-.622C.538.089.76 0 .998 0H15.01c.237 0 .458.089.664.264.206.177.309.384.309.622 0 .179-.054.379-.161.599a4.386 4.386 0 0 1-.391.651 4.658 4.658 0 0 1-.494.587 5.454 5.454 0 0 1-.465.421 215.19 215.19 0 0 0-2.096 1.583l-2.079 1.586a8.722 8.722 0 0 0-.5.389 8.63 8.63 0 0 1-.586.448 4.474 4.474 0 0 1-.617.365 1.327 1.327 0 0 1-.572.152h-.035zm0 1.987c.318 0 .622-.044.911-.134.29-.089.568-.206.834-.348.266-.141.524-.304.773-.485.249-.182.491-.37.729-.561a96.46 96.46 0 0 1 2.188-1.697 536.201 536.201 0 0 1 2.4-1.797c.061-.043.121-.094.178-.153v7.858a.97.97 0 0 1-.29.704.95.95 0 0 1-.7.295H.998a.961.961 0 0 1-.703-.295.963.963 0 0 1-.295-.704V4.479c.057.059.117.11.178.153a612.894 612.894 0 0 1 2.4 1.797 94.28 94.28 0 0 1 2.188 1.697c.225.181.463.361.712.543.248.183.506.348.773.495.265.147.545.267.838.356.292.09.591.134.898.134z"/></symbol><symbol id="website" viewBox="0 0 16 16"><path d="M14.722 7.407l-2.259 2.259a5.667 5.667 0 0 0-.334-2.481l1.186-1.204A2.248 2.248 0 0 0 14 4.333a2.25 2.25 0 0 0-.685-1.648A2.25 2.25 0 0 0 11.667 2c-.643 0-1.192.228-1.649.685l-2.5 2.481a2.249 2.249 0 0 0-.686 1.648c0 .643.229 1.198.686 1.667a.961.961 0 0 1 .297.704.957.957 0 0 1-.297.703.957.957 0 0 1-.703.297.954.954 0 0 1-.703-.297c-.841-.852-1.26-1.876-1.26-3.074 0-1.197.419-2.216 1.26-3.055l2.481-2.481C9.444.426 10.469 0 11.667 0c1.197 0 2.215.426 3.055 1.278C15.574 2.117 16 3.136 16 4.333c0 1.198-.426 2.222-1.278 3.074M9.888 12.24l-2.5 2.5C6.549 15.58 5.531 16 4.332 16c-1.196 0-2.22-.42-3.073-1.26C.419 13.888 0 12.864 0 11.666c0-1.197.419-2.216 1.259-3.055l2.277-2.278a5.74 5.74 0 0 0 .334 2.5l-1.185 1.185A2.244 2.244 0 0 0 2 11.666c0 .642.227 1.192.685 1.648A2.246 2.246 0 0 0 4.332 14c.643 0 1.192-.229 1.65-.686l2.481-2.481a2.25 2.25 0 0 0 .684-1.648c0-.642-.228-1.192-.684-1.649a.965.965 0 0 1-.296-.712c0-.278.098-.516.296-.713a.968.968 0 0 1 .713-.297c.277 0 .516.099.712.297.839.852 1.259 1.877 1.259 3.074 0 1.198-.42 2.216-1.259 3.055"/></symbol><symbol id="comments" viewBox="0 0 20 20"><path d="M20 9c0-5-4-9-10-9S0 4 0 9s4 8 10 8h2l5 3h1v-5l2-6"/></symbol></svg>