<svg xmlns="http://www.w3.org/2000/svg"><symbol id="headphones" viewBox="0 0 17 17"><path d="M15.536 8.035c.188.313.53.492.774.755.255.276.398.64.467 1.01.151.816.175 1.653.167 2.48-.008.853-.033 1.736-.199 2.575-.095.48-.302.966-.694 1.257-.477.354-1.117.354-1.71.36-.422.003-.864.013-1.24-.18-.317-.16-.553-.45-.725-.763-.413-.747-.5-1.619-.549-2.457a14.381 14.381 0 0 1 .075-2.714c.113-.852.326-1.788 1.247-2.083.152-.05.322-.08.43-.199.097-.106.122-.259.139-.402.247-2.12-.477-4.676-2.543-5.662-.941-.45-2.007-.583-3.049-.557-1.2.03-2.435.352-3.316 1.222-.976.964-1.502 2.603-1.579 4.216-.01.207-.036.915.09 1.077.05.064.087.138.295.192 1.493.39 1.377 2.158 1.407 3.376.02.762.022 1.523.01 2.285-.01.682-.212 1.873-.83 2.278-.498.326-1.576.357-2.148.32-.664-.043-1.088-.151-1.489-.698-.475-.648-.48-1.787-.522-2.573a33.013 33.013 0 0 1-.014-3.129c.032-.728.246-1.31.906-1.647.65-.258.568-1.365.658-1.997.253-1.773.878-3.843 2.41-4.975C6.5-.443 10.214-.491 12.7 1.4c1 .762 1.738 1.841 2.16 3.025a7.18 7.18 0 0 1 .397 1.843c.045.556-.018 1.242.265 1.744a.836.836 0 0 0 .013.023"/></symbol></svg>