<svg xmlns="http://www.w3.org/2000/svg" width="520" height="152" viewBox="0 0 520 152">
  <g fill="#F2F2F2" fill-rule="evenodd">
    <g transform="translate(0 26)">
      <rect width="602" height="2"/>
      <rect width="602" height="2" y="22"/>
      <rect width="602" height="2" y="45"/>
      <rect width="602" height="2" y="67"/>
      <rect width="602" height="2" y="89"/>
    </g>
    <path fill-rule="nonzero" d="M44.5414455,72.742534 C44.2217238,72.3660833 44.0609972,71.877134 44.0940314,71.3814471 L42.0060991,58.8292011 C41.8731636,58.21988 42.0723608,57.585042 42.5280822,57.1656504 C44.1686005,55.602921 45.7594061,53.9645756 47.300499,52.2506143 C50.8280981,48.4691319 53.6794464,44.0936801 55.7267974,39.3202886 C57.6856336,34.5277281 58.6746133,29.3848323 58.6349889,24.1971007 C58.8547386,17.1032453 56.9292163,10.1109837 53.116882,4.15887668 C52.4099718,3.19865254 51.610635,2.31210334 50.7306736,1.51231879 C50.2430826,0.796172391 49.5349781,0.264286384 48.7173102,0 C46.4807083,0.740566016 44.5433577,2.20070486 43.1992033,4.15887668 C37.2104652,11.7076049 34.2304304,21.2588838 34.8474739,30.9269193 C34.8492559,35.6410162 35.2484102,40.346332 36.0405781,44.9914841 C36.1712788,45.38388 36.1712788,45.8089433 36.0405781,46.2013392 C35.8189643,46.5480648 35.5417194,46.8547601 35.220319,47.1087304 C29.5188144,51.6374373 24.2508408,56.7008822 19.4862573,62.2319184 C13.6644087,68.9737936 10.3188616,77.5485822 10.0159928,86.504635 C9.76285155,94.21603 12.5232825,101.716763 17.696601,107.374634 C20.4004456,110.277023 23.7135681,112.525396 27.3905727,113.953221 C31.7201834,115.632522 36.3273029,116.453937 40.9621329,116.372931 C42.5990716,116.528346 44.2467491,116.528346 45.8836877,116.372931 C46.5244433,116.251917 47.1817266,116.251917 47.8224821,116.372931 C47.9438587,116.63653 47.9438587,116.941108 47.8224821,117.204707 C48.9922098,122.940142 49.7646436,128.751563 50.1341215,134.596373 C50.2127108,137.184323 49.755465,139.760242 48.7918792,142.157967 C48.0891066,143.988575 46.8370863,145.549123 45.2125666,146.619307 C43.8702541,147.443656 42.411823,148.055618 40.8875639,148.43409 C39.3428957,148.760469 37.7673706,148.912625 36.1897161,148.887785 C34.6337174,148.923915 33.0865504,148.641001 31.6410064,148.05601 C30.753297,147.895057 30.0476887,147.209355 29.8513501,146.316843 C30.4529849,145.501232 31.3832871,145.001805 32.3866965,144.955756 C34.0530377,144.487485 35.5369691,143.510707 36.6371302,142.157967 C37.8154277,140.575134 38.3972395,138.617472 38.2776485,136.638003 C38.3296565,134.381765 37.5293755,132.19067 36.0405781,130.513112 C34.4637166,128.809524 32.2269275,127.896715 29.9259191,128.017786 C27.4677188,127.93228 25.1057533,128.990592 23.512984,130.891192 C21.8597599,132.843939 20.9825455,135.350797 21.0522066,137.923474 C21.0875817,139.494881 21.3643242,141.05109 21.8724657,142.536046 C22.9971275,146.253346 25.7478867,149.237981 29.329367,150.626952 C31.8978076,151.619484 34.635769,152.082217 37.3828203,151.988039 C39.9470147,152.036207 42.4910427,151.520258 44.8397216,150.47572 C46.5746131,149.667081 48.1627818,148.567874 49.5375694,147.224235 C50.8769106,145.757012 51.9160584,144.035051 52.5948989,142.157967 C53.481292,139.740336 53.9113259,137.17521 53.8625721,134.596373 C53.8930987,130.542381 53.5686933,126.493643 52.8931749,122.497822 C52.0480594,117.45676 51.6255017,114.936228 51.6255017,114.936228 C51.7040981,114.699247 51.904513,114.525051 52.1474848,114.482533 L52.7440369,114.482533 C56.9585957,112.780385 60.5882887,109.862153 63.1836986,106.089163 C65.8161731,102.20505 67.1492706,97.5664737 66.9867183,92.8563739 C66.9282869,87.4416506 64.7352163,82.2758635 60.8966984,78.5113068 C57.0581804,74.7467501 51.8935377,72.6965933 46.5548089,72.8181499 C45.8837589,72.8958217 45.2049909,72.8703292 44.5414455,72.742534 Z M24.7060882,72.742534 C28.7313409,68.3174761 33.0947498,64.221496 37.7556654,60.4927518 C37.9621457,60.2411315 38.2555116,60.0788672 38.5759245,60.0390561 C38.6506848,60.2854089 38.6506848,60.5488627 38.5759245,60.7952155 L40.8129949,71.9863746 C40.8773866,72.4630498 40.8773866,72.9464022 40.8129949,73.4230774 C40.4596472,73.7488019 40.0180515,73.9595292 39.5453217,74.028005 C35.9511043,75.1646219 32.8134499,77.4448447 30.5970402,80.5309758 C28.4035124,83.4966403 27.2252345,87.1076537 27.2414346,90.8147436 C27.1553324,94.2177847 28.0915586,97.5669529 29.9259191,100.417968 C31.7256282,103.058952 34.3538586,105.004497 37.3828203,105.937932 C38.1136977,106.26017 38.8979493,106.439746 39.6944597,106.467243 C39.9579526,106.490614 40.2181424,106.394581 40.4051714,106.204926 C40.5922004,106.015271 40.6869045,105.751428 40.6638569,105.484236 C40.2280303,104.733719 39.4943034,104.210144 38.6504935,104.047533 C37.117773,103.290012 35.8258414,102.11095 34.9220429,100.644816 C33.7719682,98.9297665 33.1729195,96.8960988 33.2069556,94.8223884 C33.2021666,92.6283349 34.0298694,90.5164886 35.518595,88.9243451 C37.1817337,87.0886648 39.3300712,85.7763157 41.7078231,85.1435481 C42.1226521,85.0276486 42.5606672,85.0276486 42.9754963,85.1435481 C43.2180575,85.3575233 43.3768214,85.652677 43.4229103,85.9753234 L47.673344,111.609127 C47.7649363,111.904461 47.7649363,112.221185 47.673344,112.516518 C47.1065908,112.769896 46.5013498,112.92333 45.8836877,112.970214 C44.519015,113.087005 43.1470649,113.087005 41.7823921,112.970214 C35.2489363,113.40433 28.7825763,111.415688 23.587553,107.374634 C19.2069224,103.821587 16.7225959,98.3912994 16.8763419,92.7051421 C16.955448,85.3416753 19.7484427,78.2746431 24.7060882,72.8937659 L24.7060882,72.742534 Z M57.8892988,105.559852 C56.4039926,107.720015 54.4028594,109.463071 52.0729158,110.62612 C51.7326605,110.731329 51.3692049,110.731329 51.0289496,110.62612 C50.907573,110.362521 50.907573,110.057943 51.0289496,109.794344 L46.8530849,85.219164 C46.7336741,84.8766773 46.7336741,84.5030276 46.8530849,84.1605409 C47.1335193,84.012592 47.4674787,84.012592 47.7479131,84.1605409 C54.9261179,84.7921343 60.4159945,90.9190766 60.3500762,98.2251057 C60.3770171,100.91692 59.5394485,103.544528 57.9638678,105.711084 L57.8892988,105.559852 Z M53.638865,14.8207242 C54.6877007,16.3719206 55.1871362,18.2377797 55.0556763,20.11384 C54.4142399,27.1852043 51.0357702,33.7107327 45.6599807,38.2616655 C43.8206117,40.1268587 42.0309554,41.8156146 40.2910118,43.3279334 C39.6944597,43.8320397 39.3216147,43.6051919 39.1724766,42.64739 C38.8225111,40.1425312 38.6480797,37.6156677 38.6504935,35.085796 C38.4436344,29.6618845 39.6799659,24.281468 42.2298061,19.5089124 C43.4992048,16.2936796 46.3215075,13.9755188 49.6867074,13.3840213 C51.2084713,13.2542459 52.6929064,13.9074789 53.638865,15.1231879 L53.638865,14.8207242 Z"/>
  </g>
</svg>
