<?xml version="1.0" encoding="UTF-8"?>
<svg width="42px" height="10px" viewBox="0 0 42 10" version="1.1" xmlns="http://www.w3.org/2000/svg" xmlns:xlink="http://www.w3.org/1999/xlink">
    <!-- Generator: Sketch 52.3 (67297) - http://www.bohemiancoding.com/sketch -->
    <title>Group 2</title>
    <desc>Created with Sketch.</desc>
    <g id="Page-1" stroke="none" stroke-width="1" fill="none" fill-rule="evenodd">
        <g id="Artboard-43" transform="translate(-218.000000, -377.000000)">
            <g id="Group-2" transform="translate(218.000000, 377.000000)">
                <polygon id="Combined-Shape" fill="#2192D9" points="5 6.83387943 9.91798643 0.175 13.0735294 0.175 5.98642534 9.95441176 5.95865457 9.95441176 3.70588235 9.95441176 0.83540724 3.4886 3.70588235 3.4886"></polygon>
                <path d="M13.9374379,3.16309022 C14.2706815,3.32550805 14.5325118,3.5545554 14.7229366,3.85023912 C14.9133615,4.14592285 15.0431947,4.50406961 15.1124401,4.92469013 C15.1816855,5.34531065 15.2163077,5.81381659 15.2163077,6.33022197 L15.2163077,6.71752408 L11.671826,6.71752408 L11.671826,7.25474959 C11.671826,7.45464845 11.6869733,7.64829758 11.7172681,7.83570275 C11.747563,8.02310794 11.7973324,8.18968783 11.8665778,8.3354474 C11.9358232,8.481207 12.0267064,8.59781291 12.1392302,8.68526866 C12.251754,8.77272441 12.3902427,8.81645163 12.5547006,8.81645163 C12.8576492,8.81645163 13.0783657,8.7123392 13.2168565,8.50411122 C13.3553473,8.29588324 13.4505583,7.97938148 13.5024924,7.55459638 L15.1124401,7.55459638 C15.0778174,8.33753359 14.8614287,8.9330567 14.4632676,9.34118352 C14.0651065,9.74931037 13.4375794,9.95337072 12.5806675,9.95337072 C11.9314918,9.95337072 11.4251423,9.84925829 11.0616039,9.64103031 C10.6980655,9.43280233 10.4297436,9.15794554 10.2566301,8.81645163 C10.0835165,8.47495775 9.97748609,8.09182403 9.93853554,7.66703893 C9.90721667,7.32548298 9.94467183,7.05907845 9.93853554,6.71752408 L12.6836759,2.91952831 C13.1916636,2.92211085 13.6095802,3.00329739 13.9374379,3.16309022 Z M13.5024924,5.69304754 C13.4938367,5.43484485 13.4765256,5.20787976 13.4505586,5.01214545 C13.4245916,4.81641116 13.3791499,4.64983128 13.3142324,4.51240079 C13.2493148,4.37497033 13.1584316,4.2708579 13.0415799,4.20006038 C12.9247283,4.12926289 12.7754201,4.09386464 12.5936509,4.09386464 C12.4118817,4.09386464 12.2625736,4.13342736 12.1457219,4.212554 C12.0288703,4.29168064 11.9358232,4.39579306 11.8665778,4.52489441 C11.7973324,4.65399575 11.747563,4.79767093 11.7172681,4.95592417 C11.6869733,5.11417744 11.671826,5.27242835 11.671826,5.4306816 L11.671826,5.69304754 L13.5024924,5.69304754 Z M16.151116,3.09437533 L17.8649313,3.09437533 L17.8649313,3.99391571 L17.8908982,3.99391571 C18.0726674,3.66908009 18.2933839,3.408799 18.5530542,3.21306469 C18.8127244,3.01733041 19.1286519,2.91946471 19.500846,2.91946471 C19.55278,2.91946471 19.6068772,2.92154696 19.6631391,2.92571151 C19.719401,2.92987607 19.7734981,2.93612282 19.8254322,2.94445194 L19.8254322,4.5936093 C19.7302198,4.58528019 19.6371726,4.57903343 19.546288,4.57486887 C19.4554034,4.57070432 19.3623563,4.56862207 19.2671439,4.56862207 C19.1113417,4.56862207 18.9555419,4.58944455 18.7997397,4.63109015 C18.6439375,4.67273574 18.501121,4.74144996 18.3712859,4.83723482 C18.2414507,4.93301971 18.1375842,5.05795462 18.0596831,5.21204331 C17.981782,5.36613202 17.942832,5.55561665 17.942832,5.78050285 L17.942832,9.81594094 L16.151116,9.81594094 L16.151116,3.09437533 Z M20.5395219,0.795549934 L22.3312379,0.795549934 L22.3312379,2.26979665 L20.5395219,2.26979665 L20.5395219,0.795549934 Z M20.5395219,3.09437533 L22.3312379,3.09437533 L22.3312379,9.81594094 L20.5395219,9.81594094 L20.5395219,3.09437533 Z M23.980136,4.26877527 L23.0712945,4.26877527 L23.0712945,3.09437533 L23.980136,3.09437533 L23.980136,2.33226474 C23.980136,2.03241645 24.0234137,1.77838212 24.1099705,1.57015414 C24.1965272,1.36192616 24.3198688,1.19534628 24.4799988,1.07040949 C24.6401288,0.945472705 24.8370425,0.855936017 25.0707457,0.801796742 C25.304449,0.747657467 25.5641154,0.720588235 25.8497527,0.720588235 C26.1700127,0.720588235 26.4902679,0.733081727 26.8105279,0.758069084 L26.8105279,1.98244348 C26.7672495,1.97411436 26.7066607,1.96994986 26.6287596,1.96994986 L26.4599748,1.96994986 C26.2089602,1.96994986 26.0315215,2.01159483 25.9276534,2.09488603 C25.8237853,2.17817722 25.771852,2.31560564 25.771852,2.50717537 L25.771852,3.09437533 L26.8105279,3.09437533 L26.8105279,4.26877527 L25.771852,4.26877527 L25.771852,9.81594094 L23.980136,9.81594094 L23.980136,4.26877527 Z M27.5116342,0.795549934 L29.3033503,0.795549934 L29.3033503,2.26979665 L27.5116342,2.26979665 L27.5116342,0.795549934 Z M27.5116342,3.09437533 L29.3033503,3.09437533 L29.3033503,9.81594094 L27.5116342,9.81594094 L27.5116342,3.09437533 Z M33.9254583,5.69304754 C33.9168026,5.43484485 33.8994914,5.20787976 33.8735245,5.01214545 C33.8475573,4.81641116 33.8021158,4.64983128 33.7371983,4.51240079 C33.6722805,4.37497033 33.5813974,4.2708579 33.4645458,4.20006038 C33.3476939,4.12926289 33.198386,4.09386464 33.0166168,4.09386464 C32.8348474,4.09386464 32.6855394,4.13342736 32.5686878,4.212554 C32.4518359,4.29168064 32.3587889,4.39579306 32.2895437,4.52489441 C32.2202981,4.65399575 32.1705286,4.79767093 32.140234,4.95592417 C32.1099391,5.11417744 32.0947919,5.27242835 32.0947919,5.4306816 L32.0947919,5.69304754 L33.9254583,5.69304754 Z M32.0947919,6.71752408 L32.0947919,7.25474959 C32.0947919,7.45464845 32.1099391,7.64829758 32.140234,7.83570275 C32.1705286,8.02310794 32.2202981,8.18968783 32.2895437,8.3354474 C32.3587889,8.481207 32.4496722,8.59781291 32.5621961,8.68526866 C32.6747197,8.77272441 32.8132085,8.81645163 32.9776665,8.81645163 C33.280615,8.81645163 33.5013313,8.7123392 33.6398224,8.50411122 C33.7783132,8.29588324 33.8735242,7.97938148 33.9254583,7.55459638 L35.535406,7.55459638 C35.5007831,8.33753359 35.2843944,8.9330567 34.8862335,9.34118352 C34.4880724,9.74931037 33.8605453,9.95337072 33.0036334,9.95337072 C32.3544575,9.95337072 31.8481081,9.84925829 31.4845698,9.64103031 C31.1210313,9.43280233 30.8527094,9.15794554 30.679596,8.81645163 C30.5064823,8.47495775 30.4004518,8.09182403 30.3615015,7.66703893 C30.3225508,7.24225385 30.3030759,6.81747516 30.3030759,6.39269006 C30.3030759,5.94291764 30.335534,5.50980991 30.4004518,5.09335395 C30.4653693,4.67689799 30.5952024,4.30625775 30.7899553,3.9814221 C30.9847079,3.65658647 31.2638492,3.39838763 31.6273878,3.20681788 C31.990926,3.01524816 32.4756366,2.91946471 33.0815341,2.91946471 C33.6008746,2.91946471 34.0271602,3.0006724 34.3604038,3.16309022 C34.6936472,3.32550805 34.9554774,3.5545554 35.1459025,3.85023912 C35.3363274,4.14592285 35.4661605,4.50406961 35.535406,4.92469013 C35.6046513,5.34531065 35.6392736,5.81381659 35.6392736,6.33022197 L35.6392736,6.71752408 L32.0947919,6.71752408 Z M40.157514,9.10380481 L40.1315471,9.10380481 C39.9324665,9.42031135 39.7095861,9.64102969 39.4628994,9.76596648 C39.2162125,9.89090326 38.9111045,9.95337072 38.5475662,9.95337072 C37.8118337,9.95337072 37.2708619,9.68267841 36.9246351,9.14128566 C36.578408,8.59989291 36.4052971,7.70452602 36.4052971,6.45515814 C36.4052971,5.20579025 36.578408,4.30417664 36.9246351,3.75029019 C37.2708619,3.19640377 37.8118337,2.91946471 38.5475662,2.91946471 C38.8851376,2.91946471 39.1729344,2.98609667 39.4109656,3.11936257 C39.6489966,3.2526285 39.8632212,3.45252435 40.0536464,3.71905615 L40.0796133,3.71905615 L40.0796133,0.895498864 L41.8713293,0.895498864 L41.8713293,9.81594094 L40.157514,9.81594094 L40.157514,9.10380481 Z M38.1970131,6.45515814 C38.1970131,7.18812064 38.2554378,7.7399165 38.3722897,8.11056231 C38.4891413,8.48120812 38.742316,8.66652824 39.1318215,8.66652824 C39.5299824,8.66652824 39.7874848,8.48120812 39.9043367,8.11056231 C40.0211883,7.7399165 40.0796133,7.18812064 40.0796133,6.45515814 C40.0796133,5.72219566 40.0211883,5.17039978 39.9043367,4.79975397 C39.7874848,4.42910816 39.5299824,4.24378804 39.1318215,4.24378804 C38.742316,4.24378804 38.4891413,4.42910816 38.3722897,4.79975397 C38.2554378,5.17039978 38.1970131,5.72219566 38.1970131,6.45515814 Z" id="Combined-Shape" fill="#3D71B7" fill-rule="nonzero"></path>
            </g>
        </g>
    </g>
</svg>