<svg xmlns="http://www.w3.org/2000/svg" viewBox="0 0 1026.35005 147.05275"><defs><style>.cls-1{fill:#154c91;}</style></defs><title>taboola_feed_logo</title><g id="Layer_2" data-name="Layer 2"><g id="Layer_1-2" data-name="Layer 1"><path class="cls-1" d="M35.46,32.68H0V.31H109.86V32.68H74.34v94.85H35.48Z"/><path class="cls-1" d="M145.86,85.97a59.86018,59.86018,0,0,1-13.85,4.4c-7.82,1.74-11.92,3.66-11.95,9.86,0,4.27,4.56,8.55,10.95,8.59,8,0,14.22-4.71,14.82-14.29Zm33.61,21c0,6.92.26,14.73,4.13,20.61l-35.84-.21a24.3698,24.3698,0,0,1-1.18-8.7h-.36c-7.5,8.47-18.34,10.89-29.7,10.83-17.74-.11-32.42-8.71-32.32-28.05.17-29.11,34.25-27.85,52.19-31.11,4.8-.87,9.59-2.26,9.63-8.11,0-6.21-5.8-8.56-11.48-8.6-10.83-.05-13,5.43-13.19,9.33l-32.66-.19c1.21-25.91,25.72-30,47.56-29.9,44,.26,43.56,18.54,43.45,36.29Z"/><path class="cls-1" d="M237.32,58.97c-12.6-.07-15.51,11.8-15.57,22.62-.06,11,2.71,22.92,15.3,23s15.51-11.8,15.58-22.82c.06-10.82-2.71-22.74-15.31-22.8M188.32.11h35.14l-.25,45.65h.35c5.37-7.78,14.8-12.39,25.3-12.29,30.87.18,39.07,26.5,38.94,48.15-.14,23.07-12.89,48.73-39,48.59-17.22-.11-22.5-6.7-26.91-12.59h-.35l-.06,9.91H188.32Z"/><path class="cls-1" d="M340.76,25.89c-13.32-.08-15.17,12.87-15.23,22.62s1.64,22.91,15,23,15.17-13,15.23-22.82-1.64-22.73-15-22.8m-.42,71.17c-34.61-.2-50.1-23.19-49.95-48.75S306.29.13,340.86.37s50.14,23,50,48.53-15.9,48.36-50.51,48.16"/><path class="cls-1" d="M427.97,25.89c-13.31-.08-15.16,12.87-15.21,22.63s1.63,22.9,15,23,15.16-13,15.22-22.81-1.64-22.74-15-22.81m-.42,71.18c-34.6-.21-50.09-23.2-49.94-48.76S393.51.14,428.12.32s50.1,23,50,48.56S462.21,97.24,427.6,97.05"/><path class="cls-1" d="M485.52.37h34.4v127.2h-34.4Z"/><path class="cls-1" d="M587.64,85.66a60.34017,60.34017,0,0,1-13.86,4.35c-7.84,1.74-11.92,3.67-12,9.87,0,4.26,4.56,8.54,10.95,8.58,8,0,14.23-4.71,14.82-14.29Zm33.82,21c0,6.92-.42,15,3.46,20.92H589.6a27.55021,27.55021,0,0,1-1.26-9.21h-.36c-7.5,8.47-18.33,10.9-29.7,10.83-17.76-.11-32.43-8.71-32.32-28.06.17-29.11,34.23-27.84,52.18-31.1,4.8-.87,9.6-2.26,9.63-8.12,0-6.21-5.8-8.56-11.48-8.59-10.83-.06-13,5.43-13.18,9.33l-32.68-.18c1.22-25.91,25.74-30,47.57-29.9,44,.25,43.56,18.53,43.45,36.28Z"/><path class="cls-1" d="M303.57,97.07c25,11.15,50.84,16.1,79.06,16.26,29.64.17,52.11-5.42,80.57-16.26l-.17,30.7c-25.47,12.63-53.08,19.44-80.6,19.28-30-.18-51.6-6.34-79-19.28Z"/><polygon class="cls-1" points="679.85 128.15 692.44 128.15 692.44 67.44 755.22 67.44 755.22 55.88 692.44 55.88 692.44 11.55 762.12 11.55 762.12 0 679.85 0 679.85 128.15"/><path class="cls-1" d="M804.98,32.43c-13.44,0-24,5.11-31.26,15.18-7.14,9.84-10.63,21.72-10.39,35.23-.24,13.43,3.34,24.77,10.66,33.71s17.85,13.68,31,13.68c11.13,0,20.35-3,27.39-8.86s11.55-14.4,13.37-25.31l.49-2.91H834.66l-.4,2c-1.49,7.56-4.84,13.58-9.94,17.89s-11.59,6.48-19.34,6.48c-9.72,0-17-3.45-22.32-10.55-5-6.64-7.57-14.81-7.78-24.29h71.46l.12-2.37c.72-14-2.5-25.88-9.55-35.34C829.71,37.37,818.97,32.43,804.98,32.43ZM834.78,74h-59.6a42.37029,42.37029,0,0,1,9.07-21,25.19,25.19,0,0,1,20.74-9.85c9.07,0,16.09,3.15,21.45,9.62A37.16,37.16,0,0,1,834.78,74Z"/><path class="cls-1" d="M894.5,32.43c-13.44,0-24,5.11-31.26,15.18-7.14,9.84-10.63,21.72-10.39,35.23-.24,13.43,3.34,24.77,10.66,33.71s17.85,13.68,31,13.68c11.13,0,20.35-3,27.39-8.86s11.55-14.4,13.37-25.31l.49-2.91H924.18l-.4,2c-1.49,7.56-4.84,13.58-9.94,17.89s-11.59,6.48-19.34,6.48c-9.72,0-17-3.45-22.32-10.55-5-6.64-7.57-14.8-7.78-24.29H935.86l.12-2.37c.72-14-2.5-25.88-9.55-35.34C919.23,37.37,908.49,32.43,894.5,32.43ZM924.3,74H864.7a42.3898,42.3898,0,0,1,9.07-21,25.2,25.2,0,0,1,20.74-9.85c9.07,0,16.09,3.15,21.45,9.61A37.17,37.17,0,0,1,924.3,74Z"/><path class="cls-1" d="M1014.81,0V47.18a33.18022,33.18022,0,0,0-9-8.48,39.11993,39.11993,0,0,0-21.62-6.27c-13.63,0-24.18,4.68-31.38,13.9-7,9-10.62,20.87-10.62,35.17,0,13.71,3.41,25.32,10.14,34.51,6.91,9.43,17.22,14.22,30.65,14.22s24.2-5.16,31.82-15.35v13.29h11.55V0ZM984.36,119.53c-9.93,0-17.31-3.53-22.55-10.78s-8.06-16.57-8.06-27.25c0-11.15,2.6-20.5,7.74-27.8,5-7.12,12.44-10.58,22.71-10.58,9.92,0,17.26,3.57,22.45,10.93,5.31,7.53,8,16.77,8,27.45s-2.69,19.72-8,27.18C1001.46,115.99,994.17,119.53,984.36,119.53Z"/></g></g></svg>