<svg xmlns="http://www.w3.org/2000/svg"><symbol id="right-arrow" viewBox="0 0 18 16"><path fill="#FF004F" d="M18 8.6c-.1-.5-.4-1-.8-1.4-.8-1-1.7-1.8-2.6-2.6-1.2-1-2.3-2-3.5-2.8L9.8.8 8.6 0l-.4.1c-.3.2-.4.5-.5.8a25.9 25.9 0 0 0 4.8 5.4l1.1 1-.7-.1h-2.1c-1.9 0-3.7 0-5.5.2-.9 0-1.6 0-2.3.2H2L1 8c-.3 0-.6.2-.8.5v1.1c0 .4.2.8.6 1.1l.7.2H2l1.4-.1 10.3-.8h1l-3.2 3c-.5.5-2.5 2-2.3 2.7l.1.2.4.5c.4.3.9-.3 1.2-.5l1.3-.9c1.5-1 3-2.2 4.2-3.5l1-1.1.3-.5c.5-1 .4-1.3.4-1.3H18z"/></symbol><symbol id="chat" viewBox="0 20 174 35"><path d="M32 43h.6l.6-.5c.2-.3.2-.6.2-.8-.3-1-1.6-1-2.3-1-.7 0-1.3 0-1.8.3-2.4 1.1-4.2 3-5.4 5.3a8.5 8.5 0 0 0-.9 3.8s0 2.3 3.9 4c.5.3 1 .4 1.6.5l1.8.2c.5.1 1.1 0 1.6-.3.2-.2.4-.5.3-.8a1 1 0 0 0-.4-.7h-.2l-.2-.1c-1.6 0-3.8-.2-4.8-1.6-1.2-1.7.5-4.3 1.5-5.6l.1-.2c.8-1 2-2.5 3.5-2.5h.3zm12.7-1.4c-1.2-.2-1.5.4-1.5.4l-.8 4.6-2.7-.2.8-3.6c.1-.5 0-1-.5-1.2l-.8-.2h-.4c-.4-.2-.8-.3-1.1 0l-.4.5a34 34 0 0 0-1 4.6c-.3 0-.6.2-.6.3l.3 1.3-.7 4c0 .7.3 1.2.8 1.5.3.3.6.6 1 .7h.2l.7-.1.1-.3.4-2 .5-2.7 3 .1-.3 1.7c0 .6.2 1 .5 1.5.2.2.5.5.8.6h.1l.8-.1.6-.3c.2-.2.3-.5.3-.9l.8-5.2.6-3.7c.2-1-1.5-1.3-1.5-1.3zm12.8 6.8c.3-2 .3-3.9 0-5.8-.1-.9-.8-1.7-1.7-2a2 2 0 0 0-1.2 0c-.8.3-1.5.9-2.1 1.6a34.2 34.2 0 0 0-4.7 11.4c.2.6.8 1 1.4 1.2.4.2.9.2 1.3 0l.2-.7.6-2.1.5-1.7c1 0 2 .2 2.9.3v1.8l.1.2 1 .7H57c.4-.3.5-.7.5-1.1V51c-.2-.9-.2-1.8 0-2.6zM53 47a25 25 0 0 1 2-3.2l-.3 4.4-2-.3.3-.9zm17-3c-1-.5-2-.8-3.1-1l-2.2-.2-1.6-.6a3 3 0 0 0-1.6-.5 1 1 0 0 0-1 .9c.1 1 1.7 1.9 1.7 1.9l2 .7a18 18 0 0 0-1.4 5.5l.1 1.3c.2.4.5.8.8 1 .4.5 1 .8 1.6.9l.7-.2c.2-.1.4-.4.5-.7 0-.4-.4-.7-.5-1v-1.3c.4-1.7.9-3.4 1.5-5l2 .6c.6.1 1.1.2 1.6 0 .2 0 .3-.1.4-.3v-.3c0-1-.7-1.4-1.5-1.8v.1zm18.5 7c-.3-.2-.6 0-.8.1 0 0-2.1.3-3.7.3a53622.3 53622.3 0 0 1 1.6-8.4v-.3c0-.6-.8-.8-1.3-1-.3-.2-.6-.3-1-.3-.3.1-.6.3-.8.7v.1c-.6 2-1 4-1.4 6l-.5 2.3c-.2.8 0 1.7.4 2.4.4.4.9.7 1.5.8 1.8.5 3.7.6 5.6.3a2 2 0 0 0 1.6-1.7c.2-.9-.5-1.1-1.2-1.4v.1zm4.2 2.7c-.7-.7-1-1.7-1-2.6.6-3.2 1.2-6.3 2-9.4.3-.4 1-.1 1.4 0 .5.3 1.1.5 1.3 1v1.4s-1.4 5.3-1.7 7.3v2.2c-.6.5-1.4.5-2 0v.1zM108 43c0-.1 0-.3-.2-.5-.4-.4-1-.5-1.5-.4l-.7.4-.3.9-1 2.3-1.6 3.5c-.3-2-.3-5.8-.3-5.8l-.1-1c-.4-.8-1.6-1-1.6-1-1-.2-1.1.4-1.1.4-.8 2.4.4 8 .4 8 .2 1 .6 1.9 1.2 2.6l.8 1c.3.1.6.5.8.5h.5l.4-.2.2-.2c.9-1.6 1.7-3.3 2.4-5l1.7-3.9c.2-.5.2-1.1 0-1.6zm9.7-1.5a4 4 0 0 0-2.2-.3c-.8 0-1.7.2-2.5.4l-1.6.2-.5.3c0 .4.1.9.3 1.3-.8 2.4-1.2 5-1.2 7.6-.1.8.2 1.5.7 2l1 .6.2.2.2.3h1.9c.3 0 .7 0 1-.2a2.2 2.2 0 0 0 1.5-2.7.8.8 0 0 0-1.3-.3l-2.5.8c0-.8.2-2 .4-3l1.2-.2c.8-.2 1.8-.3 2.2-1 .2-.3.2-.6.2-1 0-.5-.5-.9-1-1-.6 0-1.2.2-1.7.3h-.3l.3-1.4c1.1 0 2.3-.3 3.5-.5.4-.2 1-.5 1-1.1 0-.6-.4-1-.8-1.3zm20.6.1c-.4.1-.6.5-.7.9l-.3 1.4-1.2 4.4-1.8-5.5-.1-.3a1.9 1.9 0 0 0-2-1.1c-.9 0-.9 1.2-.9 1.2l-.3 1.6-.8 2-1.7 4.6c-.2.6-.6 1.3-.5 2 .1.6 1.3 1.1 1.3 1.1.4 0 .8 0 1.1-.3.3-.2.5-.5.6-.9l1.3-3.5.7-1.7 2.4 3.6c.1.5.6.9 1.2 1l.9-.3c.3-.3.6-.7.7-1.2l.5-1.6 1-3.4.5-2a1.7 1.7 0 0 0-2-2h.1zm11.6 2.8a3 3 0 0 0-3.2-1.6 7 7 0 0 0-2.8 1.2l-.2.1a6.8 6.8 0 0 0-2.1 3.9 5 5 0 0 0 .5 3.4c.7.9 1.9 1.3 3 1 1.2-.2 2.3-1 3.2-2 .6-.5 1-1.1 1.5-1.8.6-1.4.6-2.9 0-4.2h.1zm-2 1.6c-.5 1.7-1.7 3-3.2 3.9h-.5l-.1-.2c0-.8.1-1.6.5-2.3.5-1 1.2-1.7 2.1-2.1.3-.2.6-.2 1-.2l.3.4v.5h-.1zm18.7-2.6c-.2-.7-.8-1.1-1.5-1-1 0-1 1.4-1 1.4a16 16 0 0 1-3 5l-.8-4.7c0-.4-.3-.7-.6-1a2 2 0 0 0-1.3-.1c-.4.2-.7.8-1 1.2l-.8 1.6-1.3 2.7v-4.2c-.1-.8-.7-1.4-1.5-1.5a1 1 0 0 0-1.1.7v1.2c0 2 .2 3.8.5 5.7.2 1 .5 2.4 1.7 2.6 1 .2 1.5-.9 2-1.6l1.6-3.3v1l.6 1.5c.3.7.8 2 1.8 1.8.5-.2 1-.4 1.3-.8l1-1 1.5-2.2c.7-1.2 1.3-2.4 1.8-3.7.1-.4.2-.8.1-1.3zm4.6 8.1c-.5-.1-1 0-1.3.4-.4.3-.6.9-.5 1.4.1.4.3.7.7.8.8.3 1.4-.1 1.8-.9l.2-.4-.1-.3c-.2-.5-.3-.9-.8-1zm2.5-11.7c-.3-.7-1-1-1.8-.9-.3.1-.4.3-.4.6 0 .6-.2 1.1-.3 1.7l-1.4 4.5c0 .5 0 1.1.4 1.6l.7.6h.6l.6-.6c.3-.4.5-.9.6-1.4l1.1-4.6c.2-.5.1-1-.1-1.5z"/><path fill="#FD004E" d="M9.6 36.6l1.7 3L12 41l1.4-3.5.5-1.9c1.8.2 3.5.3 5.2.1.7 0 1.4-.2 2-.3 1.3-.7 2.7-1.2 3.7-2.2l1.6-1.5c.6-.7.7-1.6.6-2.5a6 6 0 0 0-2-3.9L23.6 24c-.9-.7-2-1.1-3.1-1.4-2-.4-4-.5-6-.2l-1.7.1c-2.1.2-4 .8-6 1.5l-1.1.5-.6.2c-.3-.1-.5 0-.7.2l-1.5 1a4 4 0 0 0-1.4 2.5v.1c-.4 1.5.3 2.5 1.4 3.4 1.9 1.2 4 2.1 6.1 2.7l.5 2h.1zM0 30.3c0-1 .2-2.1.6-3a6.1 6.1 0 0 1 2.4-3l2.7-1.5 2.9-1.3L11 21c.3-.1.6-.2.9.2h1.9l3.6-.3 1.5.1c1.4 0 2.6.4 3.9.8 2 .8 3.5 2.3 4.8 4a7 7 0 0 1 1.2 4.8 5 5 0 0 1-1.2 3A10 10 0 0 1 25 36c-.7.5-1.4 1-2.2 1.3-.7.4-1.4.8-2.3.9-.6 0-1.3 0-2 .2h-3c0 .5-.3 1-.5 1.6l-1 3.2-.6 1.7c0 .4 0 .9-.3 1-.3.3-.5.2-.9 0l-.4-.6c-1.1-2.5-2.5-4.8-3.8-7.2l-.8-1.4c-.3 0-.5-.2-.8-.3l-2.8-1.3c-.8-.4-1.5-1-2.1-1.7a4.7 4.7 0 0 1-1.4-3.1H0z"/></symbol><symbol id="ask" viewBox="0 66 152.903 16.97"><path d="M9.7 76l-.1-4.9v-2.4c0-.5 0-1-.3-1.5l-.5-.5-1.5-.3a1 1 0 0 0-.7.3A29.2 29.2 0 0 0 0 78.9c0 .5.2 1 .6 1.1h.1l1 .1h.2l.3-.3.5-1.6L4 75.7l2.9.2v4c0 .6-.2 1.3.4 1.8.4.3.8.4 1.3.3.3 0 .5-.1.7-.3.3-.3.4-.6.4-1V76zm-2.8-5.7v3.5L5 73.7l2-3.4h-.1zm7.8 9.4c-.4 0-.8 0-1.2-.2-.6-.3-1-.8-1.4-1.4-.4-.8.2-1.9 1-1.5l.8.6.8.1c.5 0 1 0 1.5-.3a3 3 0 0 0 1-1l.3-.6c0-.4-.4-.6-.7-.7l-1.2-.6c-.7-.3-1.3-.9-1.8-1.5l-.3-.6.1-.6c.2-.5.6-1 1-1.3.4-.4 1-.6 1.5-.8l1.4-.5 1.2-.2c.4 0 .8 0 1.2.2l.2.4c0 .3 0 .7-.3.9-.4.3-.8.5-1.3.6l-2 .8c-.3.2-.5.3-.5.5s.2.4.4.5l1.4.7 1.4.8c.4.3.6.7.6 1.2a3 3 0 0 1-.7 2.4 5.6 5.6 0 0 1-4.3 2.1h-.1zm18.7-9.3c-.2-.6-1-1-1.6-.8L26 71.7l.5-2.2c0-.7-.4-1.3-1.1-1.4-1.3-.3-1.4.7-1.4.7l-1.3 8.5v1.9c.1.6.7 1.1 1.3 1.1l.6-.1c.2 0 .3-.2.4-.4v-1.7l.1-1.4a18 18 0 0 0 2.4 2 8 8 0 0 0 2.7 1.4c.5.2 1 0 1.5-.3 0 0 .6-.8 0-1.3-2.1-1-4.1-2.3-6-3.7l2.3-1 4.5-1.6c.7-.3 1.1-1 .9-1.8zm19.2 8.9c-.2-1.1-.2-2.3-.2-3.4v-5.8c0-.7 0-1.3-.2-2 0-.4-.3-.7-.6-.9-.3-.2-.6-.3-1-.3h-.8c-.4.2-.8.4-1 .8l-1 1.2c-.8.8-1.4 1.6-2 2.4-1 1.3-1.9 2.8-2.6 4.3a9.7 9.7 0 0 0-1 3.9c0 .4.4.8.8 1l.5.1h1.1l.2-.2.2-.7c.2-1 .6-2 1-2.9h3.7l.1 1.4.2 1.1.3 1.3.5.6c.4.2.9.3 1.3.2h.2l.1-.2c.2-.2.3-.4.3-.7v-1.2h-.1zm-5.3-5l2.3-3.6V75l-2.3-.6v-.1zm25.9 4.4l-1-1a8 8 0 0 0 1.1-6c-.4-2-2-3.3-4-3.5-2.4-.1-4.4 1.9-5.6 3.7a5.4 5.4 0 0 0-.6 5.3c.4 1 1.1 1.7 2 2.2 1.9 1.1 4.3 1 6-.4l.8.5c.3.1.6.4 1 .4l.3-.3v-.2l.2-.4-.2-.3zm-7-1.3A2.2 2.2 0 0 1 65 75a7 7 0 0 1 3.7-4.3 2 2 0 0 1 1.8.2c.7.7.9 1.7.6 2.6a6 6 0 0 1-.7 2l-1.2-1.2a2 2 0 0 0-1-.5h-.4l-.1.1a1 1 0 0 0-.1 1.1c.3.8.8 1.5 1.3 2.1a3 3 0 0 1-2.9.3h.2zm11-8.4l-.3-.1c-.6 0-.7.8-.8 1.2l-.4 1.9c-.4 2.1.2 4.3 1.5 6l.4.5.3.3.7.4a2 2 0 0 0 1.8 0c.7-.4 1.4-1 1.8-1.6l.5-.8.8-1.8c.5-1.2.7-2.4.6-3.7V71a1 1 0 0 0-.3-.7l-.5-.4-.6-.4a1 1 0 0 0-.8-.2c-.2 0-.3.2-.4.4v3.1a7.2 7.2 0 0 1-1.8 3.8l-.2.1h-.3a.8.8 0 0 1-.9-.5l-.1-1c-.2-1.2 0-2.5.3-3.7.2-.5.5-1 .1-1.5-.2-.3-.5-.5-.8-.6l-.5-.3-.1-.1zm16.8.2c0-.3-.2-.6-.4-.8-.6-.6-1.4-1-2.3-1-1 0-2 .4-3 .9-.4.1-.8.4-1 .8v.5l-.4 2.4a1 1 0 0 0-.4.1c-.2.1-.4.3-.4.6 0 .4.1.7.3 1a7 7 0 0 0-.3 2c0 .6 0 1.3.2 1.9.1.7.4 1.4.9 2 .7.8 1.6 1.2 2.6 1.2s2.1-.3 3-.9c.6-.6.4-1 .4-1-.2-.5-.6-1-1-1.3-.3-.2-.8 0-1.1 0l-1.3.5h-1c-.2-.2-.3-.5-.3-.8v-1.5l.5-1v-.4h3.6c.2 0 .4 0 .6-.2.2-.2.3-.4.3-.7v-.6c-.1-.4-.4-.6-.8-.7l-3.3-.2.1-1.4c1.2-.6 2.5-.9 3.8-.8.4 0 .7-.3.7-.7v.1zm.5 8.9l-.1-.4c0-.3.1-.6.3-.8l.3-.2c.3 0 .6 0 .9.2l.7.4a4 4 0 0 0 2.2.3c.7 0 1.5-.3 1.6-1.1 0-.4 0-.9-.2-1.3a2 2 0 0 0-.8-.7c-.5-.2-.9-.5-1.2-.9a2.8 2.8 0 0 1 0-3.2c.5-.7 1.2-1.2 2-1.5.8-.3 1.8-.3 2.6 0l1.2.6.2.3.1.4c0 .3 0 .7-.3.9l-.3.2h-.2a3 3 0 0 1-1-.1l-.8-.3c-.5 0-1 .2-1.3.6 0 0-.9 1.1 1 2 0 0 3 1.7 1.8 4 0 0-.5 1.6-3.4 2.2a6.3 6.3 0 0 1-4.6-1l-.7-.6zm20.6-7.5a1 1 0 0 0-.3-.7c-.3-.4-.8-.7-1.3-.8l-1.3-.1h-2.4c-1 0-2 0-3.1.2-.3 0-.6.2-.9.4-.4.5 0 1.3.4 1.7l.7.5c.1 0 .5.3.7.2l1.4-.4c0 1.5-.3 3-.8 4.4 0 0-.7 1.6.2 2.5.4.4.9.8 1.4 1a28 28 0 0 0 1.8-8h1l1.3.1c.4 0 .7 0 1-.3.2-.2.2-.4.2-.7zm2.4 8.8c-1-.3-1.4-1.7-1.1-2.7l.7-3.1.8-3 .4-1.1c0-.3.2-.6.5-.6s.5.1.7.3l.4.4.3.3c.2.2.2.5.2.8l-.4 1.8-.5 2-.4 1.7-.2.7c-.2.4-.3 1-.3 1.4v.9c-.1.2-.4.3-.6.3h-.5v-.1zm12.5-7.2l-.6-1.2-1-1a3 3 0 0 0-2.8-.4 4.6 4.6 0 0 0-2.8 2.4 9.7 9.7 0 0 0-.9 3.2c0 .7.1 1.4.4 2 .3.6.8 1.1 1.4 1.4 2.2 1.2 4.6-1 4.6-1 1.4-1.4 2-3.4 1.7-5.4zm-3 2.7l-.7.8-.8.5c-.3.2-.7.4-1 .3a.7.7 0 0 1-.3-.2l-.1-.4c0-1 .5-2.1 1.2-2.9 0 0 1.6-1.6 2.4-1 0 0 .9.7-.6 3l-.1-.1zm15.2-3.1c0-.3-.2-.6-.4-.8a9 9 0 0 0-.6-.8.8.8 0 0 0-.5-.2 1 1 0 0 0-.5 0l-.2.2-.1.2c-.3.6 0 1.2-.2 1.7l-1.1 3.8-.4-.3c-1.4-1.1-2-3.2-2.4-5v-.1l-.2-.2-.8-.8-.5-.5c-.1-.2-1.2.5-1.2.5v.7l-1 3.5-.7 2a8.2 8.2 0 0 0-.4 2.4l.6.7.8.5h.2c.4 0 .5-.5.6-.9l.5-1.8.8-4v.6l.2.5a8.3 8.3 0 0 0 1.4 2.6 12 12 0 0 0 3 2.7h.7c.2-.1.4-.3.5-.6.4-.7.7-1.5.9-2.3l.6-2.2.2-1 .2-1.1zm4.1 5c-.5.5-.9 1.1-.9 1.8 0 .6.1 1.4.8 1.6h.3c.7 0 1.3-.4 1.6-1 .2-.6.2-1.2-.1-1.8-.8-1.2-1.7-.6-1.7-.6zm4.4-9.5l-.4-.6c-.3-.3-.8-.8-1.2-.7a1 1 0 0 0-.6.5 16.4 16.4 0 0 0-2.1 6.4v2.2c.2.5 1.3.6 1.8.6.7.2.6-.7.7-1.1l.5-2 1-2.9c.2-.7.8-1.6.3-2.4z"/></symbol></svg>