<?xml version="1.0" encoding="UTF-8"?>
<svg width="88px" height="95px" viewBox="0 0 88 95" version="1.1" xmlns="http://www.w3.org/2000/svg" xmlns:xlink="http://www.w3.org/1999/xlink">
    <!-- Generator: Sketch 50.2 (55047) - http://www.bohemiancoding.com/sketch -->
    <title>Ad choice-01</title>
    <desc>Created with Sketch.</desc>
    <defs></defs>
    <g id="Page-1" stroke="none" stroke-width="1" fill="none" fill-rule="evenodd">
        <g id="Ad-choice-01" transform="translate(44.000000, 47.500000) scale(1, -1) translate(-44.000000, -47.500000) " fill="#00AECD" fill-rule="nonzero">
            <path d="M87.15936,46.106 C86.748564,44.6142365 85.7388215,43.3589402 84.36975,42.638 L46.86829,22.1448 L43.92694,20.5375 L43.84424,20.56759 L43.02966,20.1224 C42.4862082,19.9268881 41.9135934,19.8247364 41.33606,19.82027 L40.79406,19.82027 C38.1359424,19.7570552 35.9246185,21.8500732 35.84173,24.50765 L35.84173,43.12258 C35.9245109,45.7802152 38.1358996,47.8733081 40.79407,47.81 L41.33607,47.81 C43.9942214,47.8733029 46.2055976,45.7802355 46.2884,43.12262 L46.2884,33.39114 L63.20966,42.638 C65.0367766,43.5783624 66.185166,45.4609645 66.185166,47.51587 C66.185166,49.5707755 65.0367766,51.4533776 63.20966,52.39374 L19.94678,76.0353 C15.97943,78.2033 11.02026,75.49319 11.02026,71.15743 L11.02026,23.87423 C11.02026,19.86178 15.26666,17.25002 19.04437,18.59981 L18.67059,18.39553 C18.68329,18.4023 18.69659,18.4056 18.70929,18.41253 L22.54034,20.50616 C24.765397,21.2827277 27.2327462,20.4332262 28.50812,18.45147 L28.96289,17.70562 C30.0998749,15.8268129 29.7202364,13.4024213 28.06335,11.96111 L9.13037,1.615 C9.21837,1.63484 9.30762,1.64253 9.39484,1.66713 L9.36676,1.65162 C9.07449398,1.49275863 8.77006975,1.35736609 8.45636,1.24672 L8.15736,1.08332 C7.63038661,0.935591954 7.08347403,0.871581387 6.53663,0.89363 C4.94305384,0.857100155 3.39662725,1.43572403 2.21844,2.50936 C1.9854029,2.72863047 1.77124922,2.96714024 1.57825,3.22236 C1.39741862,3.45730815 1.23597739,3.70656166 1.09552,3.96766 C0.671141907,4.75532998 0.446162983,5.63496128 0.44025,6.52966 L0.44025,88.5021 C0.44617114,89.3967818 0.671149816,90.2763949 1.09552,91.06405 C1.23597739,91.3251483 1.39741862,91.5744018 1.57825,91.80935 C1.77124922,92.0645698 1.9854029,92.3030795 2.21844,92.52235 C2.46226513,92.74254 2.72385742,92.9422186 3.00055,93.11935 C3.20595418,93.2539753 3.41924704,93.3761613 3.63928,93.48525 C3.85271481,93.591043 4.07198055,93.68464 4.29602,93.76559 C5.96272187,94.3747631 7.81133546,94.2341906 9.36676,93.38 L46.86829,72.88686 L84.36975,52.3937 C85.7388215,51.6727598 86.748564,50.4174635 87.15936,48.9257 C87.4072287,48.0021419 87.4072287,47.0295581 87.15936,46.106 Z" id="Shape"></path>
            <ellipse id="Oval" cx="40.98901" cy="53.94153" rx="5.29938" ry="5.01585"></ellipse>
        </g>
    </g>
</svg>